  0
SECTION
  2
HEADER
  9
$ACADVER
  1
AC1032
  9
$ACADMAINTVER
 90
        4
  9
$DWGCODEPAGE
  3
ANSI_949
  9
$LASTSAVEDBY
  1
Soni
  9
$REQUIREDVERSIONS
160
                 0
  9
$INSBASE
 10
0.0
 20
0.0
 30
0.0
  9
$EXTMIN
 10
526.1976662967062
 20
1539.164379903688
 30
0.0
  9
$EXTMAX
 10
1323.963212917496
 20
1876.635406091033
 30
0.0
  9
$LIMMIN
 10
0.0
 20
0.0
  9
$LIMMAX
 10
12.0
 20
9.0
  9
$ORTHOMODE
 70
     0
  9
$REGENMODE
 70
     1
  9
$FILLMODE
 70
     1
  9
$QTEXTMODE
 70
     0
  9
$MIRRTEXT
 70
     1
  9
$LTSCALE
 40
1.0
  9
$ATTMODE
 70
     1
  9
$TEXTSIZE
 40
0.2
  9
$TRACEWID
 40
0.05
  9
$TEXTSTYLE
  7
Standard
  9
$CLAYER
  8
Default
  9
$CELTYPE
  6
ByLayer
  9
$CECOLOR
 62
   256
  9
$CELTSCALE
 40
1.0
  9
$DISPSILH
 70
     0
  9
$DIMSCALE
 40
1.0
  9
$DIMASZ
 40
0.18
  9
$DIMEXO
 40
0.0625
  9
$DIMDLI
 40
0.38
  9
$DIMRND
 40
0.0
  9
$DIMDLE
 40
0.0
  9
$DIMEXE
 40
0.18
  9
$DIMTP
 40
0.0
  9
$DIMTM
 40
0.0
  9
$DIMTXT
 40
0.18
  9
$DIMCEN
 40
0.09
  9
$DIMTSZ
 40
0.0
  9
$DIMTOL
 70
     0
  9
$DIMLIM
 70
     0
  9
$DIMTIH
 70
     1
  9
$DIMTOH
 70
     1
  9
$DIMSE1
 70
     0
  9
$DIMSE2
 70
     0
  9
$DIMTAD
 70
     0
  9
$DIMZIN
 70
     0
  9
$DIMBLK
  1

  9
$DIMASO
 70
     1
  9
$DIMSHO
 70
     1
  9
$DIMPOST
  1

  9
$DIMAPOST
  1

  9
$DIMALT
 70
     0
  9
$DIMALTD
 70
     2
  9
$DIMALTF
 40
25.4
  9
$DIMLFAC
 40
1.0
  9
$DIMTOFL
 70
     0
  9
$DIMTVP
 40
0.0
  9
$DIMTIX
 70
     0
  9
$DIMSOXD
 70
     0
  9
$DIMSAH
 70
     0
  9
$DIMBLK1
  1

  9
$DIMBLK2
  1

  9
$DIMSTYLE
  2
STANDARD_ACAD
  9
$DIMCLRD
 70
     0
  9
$DIMCLRE
 70
     0
  9
$DIMCLRT
 70
     0
  9
$DIMTFAC
 40
1.0
  9
$DIMGAP
 40
0.09
  9
$DIMJUST
 70
     0
  9
$DIMSD1
 70
     0
  9
$DIMSD2
 70
     0
  9
$DIMTOLJ
 70
     1
  9
$DIMTZIN
 70
     0
  9
$DIMALTZ
 70
     0
  9
$DIMALTTZ
 70
     0
  9
$DIMUPT
 70
     0
  9
$DIMDEC
 70
     4
  9
$DIMTDEC
 70
     4
  9
$DIMALTU
 70
     2
  9
$DIMALTTD
 70
     2
  9
$DIMTXSTY
  7
Standard
  9
$DIMAUNIT
 70
     0
  9
$DIMADEC
 70
     0
  9
$DIMALTRND
 40
0.0
  9
$DIMAZIN
 70
     0
  9
$DIMDSEP
 70
    46
  9
$DIMATFIT
 70
     3
  9
$DIMFRAC
 70
     0
  9
$DIMLDRBLK
  1

  9
$DIMLUNIT
 70
     2
  9
$DIMLWD
 70
    -2
  9
$DIMLWE
 70
    -2
  9
$DIMTMOVE
 70
     2
  9
$DIMFXL
 40
1.0
  9
$DIMFXLON
 70
     0
  9
$DIMJOGANG
 40
0.7853981633974483
  9
$DIMTFILL
 70
     0
  9
$DIMTFILLCLR
 70
     0
  9
$DIMARCSYM
 70
     0
  9
$DIMLTYPE
  6

  9
$DIMLTEX1
  6

  9
$DIMLTEX2
  6

  9
$DIMTXTDIRECTION
 70
     0
  9
$LUNITS
 70
     2
  9
$LUPREC
 70
     2
  9
$SKETCHINC
 40
0.1
  9
$FILLETRAD
 40
0.0
  9
$AUNITS
 70
     0
  9
$AUPREC
 70
     0
  9
$MENU
  1
.
  9
$ELEVATION
 40
0.0
  9
$PELEVATION
 40
0.0
  9
$THICKNESS
 40
0.0
  9
$LIMCHECK
 70
     0
  9
$CHAMFERA
 40
0.0
  9
$CHAMFERB
 40
0.0
  9
$CHAMFERC
 40
0.0
  9
$CHAMFERD
 40
0.0
  9
$SKPOLY
 70
     0
  9
$TDCREATE
 40
2460510.509328704
  9
$TDUCREATE
 40
2460510.676004618
  9
$TDUPDATE
 40
2460529.917222222
  9
$TDUUPDATE
 40
2460530.083888889
  9
$TDINDWG
 40
0.0517592708
  9
$TDUSRTIMER
 40
0.0517592708
  9
$USRTIMER
 70
     1
  9
$ANGBASE
 50
0.0
  9
$ANGDIR
 70
     0
  9
$PDMODE
 70
     0
  9
$PDSIZE
 40
0.0
  9
$PLINEWID
 40
0.0
  9
$SPLFRAME
 70
     0
  9
$SPLINETYPE
 70
     6
  9
$SPLINESEGS
 70
     8
  9
$HANDSEED
  5
413
  9
$SURFTAB1
 70
     6
  9
$SURFTAB2
 70
     6
  9
$SURFTYPE
 70
     6
  9
$SURFU
 70
     6
  9
$SURFV
 70
     6
  9
$UCSBASE
  2

  9
$UCSNAME
  2

  9
$UCSORG
 10
0.0
 20
0.0
 30
0.0
  9
$UCSXDIR
 10
1.0
 20
0.0
 30
0.0
  9
$UCSYDIR
 10
0.0
 20
1.0
 30
0.0
  9
$UCSORTHOREF
  2

  9
$UCSORTHOVIEW
 70
     0
  9
$UCSORGTOP
 10
0.0
 20
0.0
 30
0.0
  9
$UCSORGBOTTOM
 10
0.0
 20
0.0
 30
0.0
  9
$UCSORGLEFT
 10
0.0
 20
0.0
 30
0.0
  9
$UCSORGRIGHT
 10
0.0
 20
0.0
 30
0.0
  9
$UCSORGFRONT
 10
0.0
 20
0.0
 30
0.0
  9
$UCSORGBACK
 10
0.0
 20
0.0
 30
0.0
  9
$PUCSBASE
  2

  9
$PUCSNAME
  2

  9
$PUCSORG
 10
0.0
 20
0.0
 30
0.0
  9
$PUCSXDIR
 10
1.0
 20
0.0
 30
0.0
  9
$PUCSYDIR
 10
0.0
 20
1.0
 30
0.0
  9
$PUCSORTHOREF
  2

  9
$PUCSORTHOVIEW
 70
     0
  9
$PUCSORGTOP
 10
0.0
 20
0.0
 30
0.0
  9
$PUCSORGBOTTOM
 10
0.0
 20
0.0
 30
0.0
  9
$PUCSORGLEFT
 10
0.0
 20
0.0
 30
0.0
  9
$PUCSORGRIGHT
 10
0.0
 20
0.0
 30
0.0
  9
$PUCSORGFRONT
 10
0.0
 20
0.0
 30
0.0
  9
$PUCSORGBACK
 10
0.0
 20
0.0
 30
0.0
  9
$USERI1
 70
     0
  9
$USERI2
 70
     0
  9
$USERI3
 70
     0
  9
$USERI4
 70
     0
  9
$USERI5
 70
     0
  9
$USERR1
 40
0.0
  9
$USERR2
 40
0.0
  9
$USERR3
 40
0.0
  9
$USERR4
 40
0.0
  9
$USERR5
 40
0.0
  9
$WORLDVIEW
 70
     1
  9
$SHADEDGE
 70
     3
  9
$SHADEDIF
 70
    70
  9
$TILEMODE
 70
     1
  9
$MAXACTVP
 70
    64
  9
$PINSBASE
 10
0.0
 20
0.0
 30
0.0
  9
$PLIMCHECK
 70
     0
  9
$PEXTMIN
 10
1.000000000000000E+20
 20
1.000000000000000E+20
 30
1.000000000000000E+20
  9
$PEXTMAX
 10
-1.000000000000000E+20
 20
-1.000000000000000E+20
 30
-1.000000000000000E+20
  9
$PLIMMIN
 10
0.0
 20
0.0
  9
$PLIMMAX
 10
12.0
 20
9.0
  9
$UNITMODE
 70
     0
  9
$VISRETAIN
 70
     1
  9
$PLINEGEN
 70
     0
  9
$PSLTSCALE
 70
     1
  9
$TREEDEPTH
 70
  3020
  9
$CMLSTYLE
  2
Standard
  9
$CMLJUST
 70
     0
  9
$CMLSCALE
 40
1.0
  9
$PROXYGRAPHICS
 70
     1
  9
$MEASUREMENT
 70
     1
  9
$CELWEIGHT
370
    -1
  9
$ENDCAPS
280
     0
  9
$JOINSTYLE
280
     0
  9
$LWDISPLAY
290
     0
  9
$INSUNITS
 70
     4
  9
$HYPERLINKBASE
  1

  9
$STYLESHEET
  1

  9
$XEDIT
290
     1
  9
$CEPSNTYPE
380
     0
  9
$PSTYLEMODE
290
     1
  9
$FINGERPRINTGUID
  2
{F4532DC1-EF2F-40F0-8148-2F98FE948A57}
  9
$VERSIONGUID
  2
{B88F1525-4344-504C-943E-B914E6B36741}
  9
$EXTNAMES
290
     1
  9
$PSVPSCALE
 40
0.0
  9
$OLESTARTUP
290
     0
  9
$SORTENTS
280
   127
  9
$INDEXCTL
280
     0
  9
$HIDETEXT
280
     1
  9
$XCLIPFRAME
280
     2
  9
$HALOGAP
280
     0
  9
$OBSCOLOR
 70
   257
  9
$OBSLTYPE
280
     0
  9
$INTERSECTIONDISPLAY
280
     0
  9
$INTERSECTIONCOLOR
 70
   257
  9
$DIMASSOC
280
     2
  9
$PROJECTNAME
  1

  9
$CAMERADISPLAY
290
     0
  9
$LENSLENGTH
 40
50.0
  9
$CAMERAHEIGHT
 40
0.0
  9
$STEPSPERSEC
 40
2.0
  9
$STEPSIZE
 40
6.0
  9
$3DDWFPREC
 40
2.0
  9
$PSOLWIDTH
 40
0.25
  9
$PSOLHEIGHT
 40
4.0
  9
$LOFTANG1
 40
1.570796326794897
  9
$LOFTANG2
 40
1.570796326794897
  9
$LOFTMAG1
 40
0.0
  9
$LOFTMAG2
 40
0.0
  9
$LOFTPARAM
 70
     7
  9
$LOFTNORMALS
280
     1
  9
$LATITUDE
 40
37.795
  9
$LONGITUDE
 40
-122.394
  9
$NORTHDIRECTION
 40
0.0
  9
$TIMEZONE
 70
 -8000
  9
$LIGHTGLYPHDISPLAY
280
     1
  9
$TILEMODELIGHTSYNCH
280
     1
  9
$CMATERIAL
347
44
  9
$SOLIDHIST
280
     0
  9
$SHOWHIST
280
     1
  9
$DWFFRAME
280
     2
  9
$DGNFRAME
280
     2
  9
$REALWORLDSCALE
290
     1
  9
$INTERFERECOLOR
 62
   256
  9
$INTERFEREOBJVS
345
33
  9
$INTERFEREVPVS
346
30
  9
$CSHADOW
280
     0
  9
$SHADOWPLANELOCATION
 40
0.0
  0
ENDSEC
  0
SECTION
  2
CLASSES
  0
CLASS
  1
ACDBDICTIONARYWDFLT
  2
AcDbDictionaryWithDefault
  3
ObjectDBX Classes
 90
        0
 91
        1
280
     0
281
     0
  0
CLASS
  1
VISUALSTYLE
  2
AcDbVisualStyle
  3
ObjectDBX Classes
 90
     4095
 91
       24
280
     0
281
     0
  0
CLASS
  1
MATERIAL
  2
AcDbMaterial
  3
ObjectDBX Classes
 90
     1153
 91
        3
280
     0
281
     0
  0
CLASS
  1
SCALE
  2
AcDbScale
  3
ObjectDBX Classes
 90
     1153
 91
       17
280
     0
281
     0
  0
CLASS
  1
TABLESTYLE
  2
AcDbTableStyle
  3
ObjectDBX Classes
 90
     4095
 91
        1
280
     0
281
     0
  0
CLASS
  1
MLEADERSTYLE
  2
AcDbMLeaderStyle
  3
ACDB_MLEADERSTYLE_CLASS
 90
     4095
 91
        1
280
     0
281
     0
  0
CLASS
  1
SUN
  2
AcDbSun
  3
SCENEOE
 90
     1153
 91
        1
280
     0
281
     0
  0
CLASS
  1
DICTIONARYVAR
  2
AcDbDictionaryVar
  3
ObjectDBX Classes
 90
        0
 91
       12
280
     0
281
     0
  0
CLASS
  1
CELLSTYLEMAP
  2
AcDbCellStyleMap
  3
ObjectDBX Classes
 90
     1152
 91
        3
280
     0
281
     0
  0
CLASS
  1
ACDBSECTIONVIEWSTYLE
  2
AcDbSectionViewStyle
  3
ObjectDBX Classes
 90
     1025
 91
        1
280
     0
281
     0
  0
CLASS
  1
ACDBDETAILVIEWSTYLE
  2
AcDbDetailViewStyle
  3
ObjectDBX Classes
 90
     1025
 91
        1
280
     0
281
     0
  0
CLASS
  1
SORTENTSTABLE
  2
AcDbSortentsTable
  3
ObjectDBX Classes
 90
        0
 91
        1
280
     0
281
     0
  0
ENDSEC
  0
SECTION
  2
TABLES
  0
TABLE
  2
VPORT
  5
8
330
0
100
AcDbSymbolTable
 70
     1
  0
VPORT
  5
29
330
8
100
AcDbSymbolTableRecord
100
AcDbViewportTableRecord
  2
*Active
 70
     0
 10
0.0
 20
0.0
 11
1.0
 21
1.0
 12
1191.870869361054
 22
1765.372173544158
 13
0.0
 23
0.0
 14
0.5
 24
0.5
 15
0.5
 25
0.5
 16
0.0
 26
0.0
 36
1.0
 17
0.0
 27
0.0
 37
0.0
 40
677.1036308858529
 41
1.390875462392108
 42
50.0
 43
0.0
 44
0.0
 50
0.0
 51
0.0
 71
     0
 72
   100
 73
     1
 74
     3
 75
     0
 76
     0
 77
     0
 78
     0
281
     0
 65
     1
110
0.0
120
0.0
130
0.0
111
1.0
121
0.0
131
0.0
112
0.0
122
1.0
132
0.0
 79
     0
146
0.0
348
2F
 60
     3
 61
     5
292
     1
282
     1
141
0.0
142
0.0
 63
   250
361
5D
1001
ACAD_NAV_VCDISPLAY
1070
     3
  0
ENDTAB
  0
TABLE
  2
LTYPE
  5
5
330
0
100
AcDbSymbolTable
 70
     2
  0
LTYPE
  5
14
330
5
100
AcDbSymbolTableRecord
100
AcDbLinetypeTableRecord
  2
ByBlock
 70
     0
  3

 72
    65
 73
     0
 40
0.0
  0
LTYPE
  5
15
330
5
100
AcDbSymbolTableRecord
100
AcDbLinetypeTableRecord
  2
ByLayer
 70
     0
  3

 72
    65
 73
     0
 40
0.0
  0
LTYPE
  5
16
330
5
100
AcDbSymbolTableRecord
100
AcDbLinetypeTableRecord
  2
Continuous
 70
     0
  3
Solid line
 72
    65
 73
     0
 40
0.0
  0
ENDTAB
  0
TABLE
  2
LAYER
  5
2
330
0
100
AcDbSymbolTable
 70
     2
  0
LAYER
  5
10
102
{ACAD_XDICTIONARY
360
3D0
102
}
330
2
100
AcDbSymbolTableRecord
100
AcDbLayerTableRecord
  2
0
 70
     0
 62
     7
  6
Continuous
370
    -3
390
F
347
46
348
0
  0
LAYER
  5
5F
102
{ACAD_XDICTIONARY
360
3D2
102
}
330
2
100
AcDbSymbolTableRecord
100
AcDbLayerTableRecord
  2
Default
 70
     0
 62
    18
420
        0
  6
Continuous
370
    -3
390
F
347
46
348
0
  0
ENDTAB
  0
TABLE
  2
STYLE
  5
3
330
0
100
AcDbSymbolTable
 70
     1
  0
STYLE
  5
11
330
3
100
AcDbSymbolTableRecord
100
AcDbTextStyleTableRecord
  2
Standard
 70
     0
 40
0.0
 41
1.0
 50
0.0
 71
     0
 42
0.2
  3
txt
  4

  0
ENDTAB
  0
TABLE
  2
VIEW
  5
6
330
0
100
AcDbSymbolTable
 70
     0
  0
ENDTAB
  0
TABLE
  2
UCS
  5
7
330
0
100
AcDbSymbolTable
 70
     0
  0
ENDTAB
  0
TABLE
  2
APPID
  5
9
330
0
100
AcDbSymbolTable
 70
     5
  0
APPID
  5
12
330
9
100
AcDbSymbolTableRecord
100
AcDbRegAppTableRecord
  2
ACAD
 70
     0
  0
APPID
  5
5E
330
9
100
AcDbSymbolTableRecord
100
AcDbRegAppTableRecord
  2
Rhino
 70
     0
  0
APPID
  5
2D5
330
9
100
AcDbSymbolTableRecord
100
AcDbRegAppTableRecord
  2
ACAD_MLEADERVER
 70
     0
  0
APPID
  5
2E5
330
9
100
AcDbSymbolTableRecord
100
AcDbRegAppTableRecord
  2
ACAD_EXEMPT_FROM_CAD_STANDARDS
 70
     0
  0
APPID
  5
3B9
330
9
100
AcDbSymbolTableRecord
100
AcDbRegAppTableRecord
  2
ACAD_NAV_VCDISPLAY
 70
     0
  0
ENDTAB
  0
TABLE
  2
DIMSTYLE
  5
A
330
0
100
AcDbSymbolTable
 70
     2
100
AcDbDimStyleTable
 71
     1
340
27
  0
DIMSTYLE
105
27
330
A
100
AcDbSymbolTableRecord
100
AcDbDimStyleTableRecord
  2
STANDARD_ACAD
 70
     0
340
11
  0
ENDTAB
  0
TABLE
  2
BLOCK_RECORD
  5
1
330
0
100
AcDbSymbolTable
 70
     2
  0
BLOCK_RECORD
  5
1F
102
{ACAD_XDICTIONARY
360
32D
102
}
330
1
100
AcDbSymbolTableRecord
100
AcDbBlockTableRecord
  2
*Model_Space
340
22
 70
     0
280
     1
281
     0
  0
BLOCK_RECORD
  5
1B
330
1
100
AcDbSymbolTableRecord
100
AcDbBlockTableRecord
  2
*Paper_Space
340
1E
 70
     0
280
     1
281
     0
  0
BLOCK_RECORD
  5
23
330
1
100
AcDbSymbolTableRecord
100
AcDbBlockTableRecord
  2
*Paper_Space0
340
26
 70
     0
280
     1
281
     0
  0
ENDTAB
  0
ENDSEC
  0
SECTION
  2
BLOCKS
  0
BLOCK
  5
20
330
1F
100
AcDbEntity
  8
0
100
AcDbBlockBegin
  2
*Model_Space
 70
     0
 10
0.0
 20
0.0
 30
0.0
  3
*Model_Space
  1

  0
ENDBLK
  5
21
330
1F
100
AcDbEntity
  8
0
100
AcDbBlockEnd
  0
BLOCK
  5
1C
330
1B
100
AcDbEntity
 67
     1
  8
0
100
AcDbBlockBegin
  2
*Paper_Space
 70
     0
 10
0.0
 20
0.0
 30
0.0
  3
*Paper_Space
  1

  0
ENDBLK
  5
1D
330
1B
100
AcDbEntity
 67
     1
  8
0
100
AcDbBlockEnd
  0
BLOCK
  5
24
330
23
100
AcDbEntity
 67
     1
  8
0
100
AcDbBlockBegin
  2
*Paper_Space0
 70
     0
 10
0.0
 20
0.0
 30
0.0
  3
*Paper_Space0
  1

  0
ENDBLK
  5
25
330
23
100
AcDbEntity
 67
     1
  8
0
100
AcDbBlockEnd
  0
ENDSEC
  0
SECTION
  2
ENTITIES
  0
LWPOLYLINE
  5
3B7
330
1F
100
AcDbEntity
  8
Default
100
AcDbPolyline
 90
       38
 70
     1
 43
0.0
 10
1063.12223583536
 20
1839.635406091034
 10
1060.222235835361
 20
1839.635406091034
 10
1060.222235835361
 20
1847.935406091034
 10
1063.122235835361
 20
1847.935406091034
 42
0.2000000000020988
 10
1063.322235835361
 20
1847.935406091034
 10
1066.222235835361
 20
1847.935406091034
 10
1066.222235835361
 20
1851.235406091034
 10
1057.222235835361
 20
1851.235406091034
 10
1057.222235835361
 20
1805.635406091034
 10
989.222235835361
 20
1805.635406091034
 10
989.222235835361
 20
1771.635406091034
 10
986.2222358353609
 20
1771.635406091034
 10
986.2222358353609
 20
1768.735406091034
 10
983.2222358353609
 20
1768.735406091034
 10
983.2222358353609
 20
1762.535406091034
 10
986.2222358353609
 20
1762.535406091034
 10
986.2222358353609
 20
1759.635406091034
 10
989.222235835361
 20
1759.635406091034
 10
989.222235835361
 20
1748.035406091034
 10
998.222235835361
 20
1748.035406091034
 10
998.222235835361
 20
1751.335406091034
 10
995.3222358353608
 20
1751.335406091034
 42
0.2000000000021084
 10
995.1222358353616
 20
1751.335406091034
 10
992.2222358353609
 20
1751.335406091034
 10
992.2222358353609
 20
1759.635406091034
 10
995.1222358353607
 20
1759.635406091034
 42
0.2000000000020988
 10
995.3222358353611
 20
1759.635406091034
 10
1001.222235835361
 20
1759.635406091034
 10
1001.222235835361
 20
1793.635406091034
 10
1069.222235835361
 20
1793.635406091034
 10
1069.222235835361
 20
1827.635406091034
 10
1072.222235835361
 20
1827.635406091034
 10
1072.222235835361
 20
1830.535406091034
 10
1075.222235835361
 20
1830.535406091034
 10
1075.222235835361
 20
1836.735406091034
 10
1072.222235835361
 20
1836.735406091034
 10
1072.222235835361
 20
1839.635406091034
 10
1063.322235835362
 20
1839.635406091034
 42
0.2000000000021101
  0
LWPOLYLINE
  5
3B8
330
1F
100
AcDbEntity
  8
Default
100
AcDbPolyline
 90
       38
 70
     1
 43
0.0
 10
1084.12223583536
 20
1824.735406091034
 10
1081.222235835361
 20
1824.735406091034
 10
1081.222235835361
 20
1833.035406091034
 10
1084.122235835361
 20
1833.035406091034
 42
0.2000000000020988
 10
1084.322235835361
 20
1833.035406091034
 10
1087.222235835361
 20
1833.035406091034
 10
1087.222235835361
 20
1836.335406091034
 10
1078.222235835361
 20
1836.335406091034
 10
1078.222235835361
 20
1790.735406091034
 10
1010.222235835361
 20
1790.735406091034
 10
1010.222235835361
 20
1756.735406091034
 10
1007.222235835361
 20
1756.735406091034
 10
1007.222235835361
 20
1753.835406091033
 10
1004.222235835361
 20
1753.835406091033
 10
1004.222235835361
 20
1747.635406091034
 10
1007.222235835361
 20
1747.635406091034
 10
1007.222235835361
 20
1744.735406091034
 10
1010.222235835361
 20
1744.735406091034
 10
1010.222235835361
 20
1733.135406091034
 10
1019.222235835361
 20
1733.135406091034
 10
1019.222235835361
 20
1736.435406091034
 10
1016.322235835361
 20
1736.435406091034
 42
0.2000000000021084
 10
1016.122235835362
 20
1736.435406091034
 10
1013.222235835361
 20
1736.435406091034
 10
1013.222235835361
 20
1744.735406091034
 10
1016.122235835361
 20
1744.735406091034
 42
0.2000000000020988
 10
1016.322235835361
 20
1744.735406091034
 10
1022.222235835361
 20
1744.735406091034
 10
1022.222235835361
 20
1778.735406091034
 10
1090.222235835361
 20
1778.735406091034
 10
1090.222235835361
 20
1812.735406091034
 10
1093.222235835361
 20
1812.735406091034
 10
1093.222235835361
 20
1815.635406091034
 10
1096.222235835361
 20
1815.635406091034
 10
1096.222235835361
 20
1821.835406091034
 10
1093.222235835361
 20
1821.835406091034
 10
1093.222235835361
 20
1824.735406091034
 10
1084.322235835361
 20
1824.735406091034
 42
0.2000000000021101
  0
LWPOLYLINE
  5
3BE
330
1F
100
AcDbEntity
  8
Default
100
AcDbPolyline
 90
       38
 70
     1
 43
0.0
 10
1105.12223583536
 20
1809.835406091034
 10
1102.222235835361
 20
1809.835406091034
 10
1102.222235835361
 20
1818.135406091034
 10
1105.122235835361
 20
1818.135406091034
 42
0.2000000000020988
 10
1105.322235835361
 20
1818.135406091034
 10
1108.222235835361
 20
1818.135406091034
 10
1108.222235835361
 20
1821.435406091034
 10
1099.222235835361
 20
1821.435406091034
 10
1099.222235835361
 20
1775.835406091034
 10
1031.222235835361
 20
1775.835406091034
 10
1031.222235835361
 20
1741.835406091034
 10
1028.222235835361
 20
1741.835406091034
 10
1028.222235835361
 20
1738.935406091033
 10
1025.222235835361
 20
1738.935406091033
 10
1025.222235835361
 20
1732.735406091034
 10
1028.222235835361
 20
1732.735406091034
 10
1028.222235835361
 20
1729.835406091034
 10
1031.222235835361
 20
1729.835406091034
 10
1031.222235835361
 20
1718.235406091034
 10
1040.222235835361
 20
1718.235406091034
 10
1040.222235835361
 20
1721.535406091034
 10
1037.322235835361
 20
1721.535406091034
 42
0.2000000000021084
 10
1037.122235835362
 20
1721.535406091034
 10
1034.222235835361
 20
1721.535406091034
 10
1034.222235835361
 20
1729.835406091034
 10
1037.122235835361
 20
1729.835406091034
 42
0.2000000000020988
 10
1037.322235835361
 20
1729.835406091034
 10
1043.222235835361
 20
1729.835406091034
 10
1043.222235835361
 20
1763.835406091034
 10
1111.222235835361
 20
1763.835406091034
 10
1111.222235835361
 20
1797.835406091033
 10
1114.222235835361
 20
1797.835406091033
 10
1114.222235835361
 20
1800.735406091034
 10
1117.222235835361
 20
1800.735406091034
 10
1117.222235835361
 20
1806.935406091034
 10
1114.222235835361
 20
1806.935406091034
 10
1114.222235835361
 20
1809.835406091034
 10
1105.322235835362
 20
1809.835406091034
 42
0.2000000000021101
  0
LWPOLYLINE
  5
3BF
330
1F
100
AcDbEntity
  8
Default
100
AcDbPolyline
 90
       38
 70
     1
 43
0.0
 10
1126.12223583536
 20
1794.935406091034
 10
1123.222235835361
 20
1794.935406091034
 10
1123.222235835361
 20
1803.235406091033
 10
1126.122235835361
 20
1803.235406091033
 42
0.2000000000020988
 10
1126.322235835361
 20
1803.235406091033
 10
1129.222235835361
 20
1803.235406091033
 10
1129.222235835361
 20
1806.535406091034
 10
1120.222235835361
 20
1806.535406091034
 10
1120.222235835361
 20
1760.935406091034
 10
1052.222235835361
 20
1760.935406091034
 10
1052.222235835361
 20
1726.935406091033
 10
1049.222235835361
 20
1726.935406091033
 10
1049.222235835361
 20
1724.035406091033
 10
1046.222235835361
 20
1724.035406091033
 10
1046.222235835361
 20
1717.835406091033
 10
1049.222235835361
 20
1717.835406091033
 10
1049.222235835361
 20
1714.935406091034
 10
1052.222235835361
 20
1714.935406091034
 10
1052.222235835361
 20
1703.335406091033
 10
1061.222235835361
 20
1703.335406091033
 10
1061.222235835361
 20
1706.635406091034
 10
1058.322235835361
 20
1706.635406091034
 42
0.2000000000021084
 10
1058.122235835361
 20
1706.635406091034
 10
1055.222235835361
 20
1706.635406091034
 10
1055.222235835361
 20
1714.935406091034
 10
1058.122235835361
 20
1714.935406091034
 42
0.2000000000020988
 10
1058.322235835361
 20
1714.935406091034
 10
1064.222235835361
 20
1714.935406091034
 10
1064.222235835361
 20
1748.935406091034
 10
1132.222235835361
 20
1748.935406091034
 10
1132.222235835361
 20
1782.935406091034
 10
1135.222235835361
 20
1782.935406091034
 10
1135.222235835361
 20
1785.835406091034
 10
1138.222235835361
 20
1785.835406091034
 10
1138.222235835361
 20
1792.035406091034
 10
1135.222235835361
 20
1792.035406091034
 10
1135.222235835361
 20
1794.935406091034
 10
1126.322235835361
 20
1794.935406091034
 42
0.2000000000021101
  0
LWPOLYLINE
  5
3C0
330
1F
100
AcDbEntity
  8
Default
100
AcDbPolyline
 90
       38
 70
     1
 43
0.0
 10
1147.12223583536
 20
1780.035406091033
 10
1144.222235835361
 20
1780.035406091033
 10
1144.222235835361
 20
1788.335406091033
 10
1147.122235835361
 20
1788.335406091033
 42
0.2000000000020988
 10
1147.322235835361
 20
1788.335406091033
 10
1150.222235835361
 20
1788.335406091033
 10
1150.222235835361
 20
1791.635406091033
 10
1141.222235835361
 20
1791.635406091033
 10
1141.222235835361
 20
1746.035406091033
 10
1073.222235835361
 20
1746.035406091033
 10
1073.222235835361
 20
1712.035406091034
 10
1070.222235835361
 20
1712.035406091034
 10
1070.222235835361
 20
1709.135406091033
 10
1067.222235835361
 20
1709.135406091033
 10
1067.222235835361
 20
1702.935406091033
 10
1070.222235835361
 20
1702.935406091033
 10
1070.222235835361
 20
1700.035406091033
 10
1073.222235835361
 20
1700.035406091033
 10
1073.222235835361
 20
1688.435406091033
 10
1082.222235835361
 20
1688.435406091033
 10
1082.222235835361
 20
1691.735406091034
 10
1079.322235835361
 20
1691.735406091034
 42
0.2000000000021084
 10
1079.122235835361
 20
1691.735406091034
 10
1076.222235835361
 20
1691.735406091034
 10
1076.222235835361
 20
1700.035406091033
 10
1079.12223583536
 20
1700.035406091033
 42
0.2000000000020988
 10
1079.322235835361
 20
1700.035406091033
 10
1085.222235835361
 20
1700.035406091033
 10
1085.222235835361
 20
1734.035406091033
 10
1153.222235835361
 20
1734.035406091033
 10
1153.222235835361
 20
1768.035406091033
 10
1156.222235835361
 20
1768.035406091033
 10
1156.222235835361
 20
1770.935406091033
 10
1159.222235835361
 20
1770.935406091033
 10
1159.222235835361
 20
1777.135406091034
 10
1156.222235835361
 20
1777.135406091034
 10
1156.222235835361
 20
1780.035406091033
 10
1147.322235835361
 20
1780.035406091033
 42
0.2000000000021101
  0
LWPOLYLINE
  5
3C1
330
1F
100
AcDbEntity
  8
Default
100
AcDbPolyline
 90
       38
 70
     1
 43
0.0
 10
1168.12223583536
 20
1765.135406091033
 10
1165.222235835361
 20
1765.135406091033
 10
1165.222235835361
 20
1773.435406091033
 10
1168.122235835361
 20
1773.435406091033
 42
0.2000000000020988
 10
1168.322235835361
 20
1773.435406091033
 10
1171.222235835361
 20
1773.435406091033
 10
1171.222235835361
 20
1776.735406091033
 10
1162.222235835361
 20
1776.735406091033
 10
1162.222235835361
 20
1731.135406091033
 10
1094.222235835361
 20
1731.135406091033
 10
1094.222235835361
 20
1697.135406091033
 10
1091.222235835361
 20
1697.135406091033
 10
1091.222235835361
 20
1694.235406091033
 10
1088.222235835361
 20
1694.235406091033
 10
1088.222235835361
 20
1688.035406091033
 10
1091.222235835361
 20
1688.035406091033
 10
1091.222235835361
 20
1685.135406091033
 10
1094.222235835361
 20
1685.135406091033
 10
1094.222235835361
 20
1673.535406091033
 10
1103.222235835361
 20
1673.535406091033
 10
1103.222235835361
 20
1676.835406091034
 10
1100.322235835361
 20
1676.835406091034
 42
0.2000000000021084
 10
1100.122235835361
 20
1676.835406091034
 10
1097.222235835361
 20
1676.835406091034
 10
1097.222235835361
 20
1685.135406091033
 10
1100.12223583536
 20
1685.135406091033
 42
0.2000000000020988
 10
1100.322235835361
 20
1685.135406091033
 10
1106.222235835361
 20
1685.135406091033
 10
1106.222235835361
 20
1719.135406091033
 10
1174.222235835361
 20
1719.135406091033
 10
1174.222235835361
 20
1753.135406091033
 10
1177.222235835361
 20
1753.135406091033
 10
1177.222235835361
 20
1756.035406091033
 10
1180.222235835361
 20
1756.035406091033
 10
1180.222235835361
 20
1762.235406091033
 10
1177.222235835361
 20
1762.235406091033
 10
1177.222235835361
 20
1765.135406091033
 10
1168.322235835361
 20
1765.135406091033
 42
0.2000000000021101
  0
LWPOLYLINE
  5
3C2
330
1F
100
AcDbEntity
  8
Default
100
AcDbPolyline
 90
       38
 70
     1
 43
0.0
 10
1189.12223583536
 20
1750.235406091033
 10
1186.222235835361
 20
1750.235406091033
 10
1186.222235835361
 20
1758.535406091033
 10
1189.122235835361
 20
1758.535406091033
 42
0.2000000000020988
 10
1189.322235835361
 20
1758.535406091033
 10
1192.222235835361
 20
1758.535406091033
 10
1192.222235835361
 20
1761.835406091033
 10
1183.222235835361
 20
1761.835406091033
 10
1183.222235835361
 20
1716.235406091033
 10
1115.222235835361
 20
1716.235406091033
 10
1115.222235835361
 20
1682.235406091033
 10
1112.222235835361
 20
1682.235406091033
 10
1112.222235835361
 20
1679.335406091033
 10
1109.222235835361
 20
1679.335406091033
 10
1109.222235835361
 20
1673.135406091033
 10
1112.222235835361
 20
1673.135406091033
 10
1112.222235835361
 20
1670.235406091033
 10
1115.222235835361
 20
1670.235406091033
 10
1115.222235835361
 20
1658.635406091033
 10
1124.222235835361
 20
1658.635406091033
 10
1124.222235835361
 20
1661.935406091034
 10
1121.322235835361
 20
1661.935406091033
 42
0.2000000000021084
 10
1121.122235835361
 20
1661.935406091034
 10
1118.222235835361
 20
1661.935406091034
 10
1118.222235835361
 20
1670.235406091033
 10
1121.12223583536
 20
1670.235406091033
 42
0.2000000000020988
 10
1121.322235835361
 20
1670.235406091033
 10
1127.222235835361
 20
1670.235406091033
 10
1127.222235835361
 20
1704.235406091033
 10
1195.222235835361
 20
1704.235406091033
 10
1195.222235835361
 20
1738.235406091033
 10
1198.222235835361
 20
1738.235406091033
 10
1198.222235835361
 20
1741.135406091033
 10
1201.222235835361
 20
1741.135406091033
 10
1201.222235835361
 20
1747.335406091033
 10
1198.222235835361
 20
1747.335406091033
 10
1198.222235835361
 20
1750.235406091033
 10
1189.322235835361
 20
1750.235406091033
 42
0.2000000000021101
  0
LWPOLYLINE
  5
3C3
330
1F
100
AcDbEntity
  8
Default
100
AcDbPolyline
 90
       38
 70
     1
 43
0.0
 10
1210.12223583536
 20
1735.335406091033
 10
1207.222235835361
 20
1735.335406091033
 10
1207.222235835361
 20
1743.635406091033
 10
1210.122235835361
 20
1743.635406091033
 42
0.2000000000020988
 10
1210.322235835361
 20
1743.635406091033
 10
1213.222235835361
 20
1743.635406091033
 10
1213.222235835361
 20
1746.935406091033
 10
1204.222235835361
 20
1746.935406091033
 10
1204.222235835361
 20
1701.335406091033
 10
1136.222235835361
 20
1701.335406091033
 10
1136.222235835361
 20
1667.335406091033
 10
1133.222235835361
 20
1667.335406091033
 10
1133.222235835361
 20
1664.435406091033
 10
1130.222235835361
 20
1664.435406091033
 10
1130.222235835361
 20
1658.235406091033
 10
1133.222235835361
 20
1658.235406091033
 10
1133.222235835361
 20
1655.335406091033
 10
1136.222235835361
 20
1655.335406091033
 10
1136.222235835361
 20
1643.735406091033
 10
1145.222235835361
 20
1643.735406091033
 10
1145.222235835361
 20
1647.035406091034
 10
1142.322235835361
 20
1647.035406091033
 42
0.2000000000021084
 10
1142.122235835361
 20
1647.035406091034
 10
1139.222235835361
 20
1647.035406091034
 10
1139.222235835361
 20
1655.335406091033
 10
1142.12223583536
 20
1655.335406091033
 42
0.2000000000020988
 10
1142.322235835361
 20
1655.335406091033
 10
1148.222235835361
 20
1655.335406091033
 10
1148.222235835361
 20
1689.335406091033
 10
1216.222235835361
 20
1689.335406091033
 10
1216.222235835361
 20
1723.335406091033
 10
1219.222235835361
 20
1723.335406091033
 10
1219.222235835361
 20
1726.235406091033
 10
1222.222235835361
 20
1726.235406091033
 10
1222.222235835361
 20
1732.435406091033
 10
1219.222235835361
 20
1732.435406091033
 10
1219.222235835361
 20
1735.335406091033
 10
1210.322235835362
 20
1735.335406091033
 42
0.2000000000021101
  0
LWPOLYLINE
  5
3C4
330
1F
100
AcDbEntity
  8
Default
100
AcDbPolyline
 90
       38
 70
     1
 43
0.0
 10
1231.12223583536
 20
1720.435406091033
 10
1228.222235835361
 20
1720.435406091033
 10
1228.222235835361
 20
1728.735406091033
 10
1231.122235835361
 20
1728.735406091033
 42
0.2000000000020988
 10
1231.322235835361
 20
1728.735406091033
 10
1234.222235835361
 20
1728.735406091033
 10
1234.222235835361
 20
1732.035406091033
 10
1225.222235835361
 20
1732.035406091033
 10
1225.222235835361
 20
1686.435406091033
 10
1157.222235835361
 20
1686.435406091033
 10
1157.222235835361
 20
1652.435406091033
 10
1154.222235835361
 20
1652.435406091033
 10
1154.222235835361
 20
1649.535406091033
 10
1151.222235835361
 20
1649.535406091033
 10
1151.222235835361
 20
1643.335406091033
 10
1154.222235835361
 20
1643.335406091033
 10
1154.222235835361
 20
1640.435406091033
 10
1157.222235835361
 20
1640.435406091033
 10
1157.222235835361
 20
1628.835406091033
 10
1166.222235835361
 20
1628.835406091033
 10
1166.222235835361
 20
1632.135406091034
 10
1163.322235835361
 20
1632.135406091033
 42
0.2000000000021084
 10
1163.122235835361
 20
1632.135406091034
 10
1160.222235835361
 20
1632.135406091034
 10
1160.222235835361
 20
1640.435406091033
 10
1163.122235835361
 20
1640.435406091033
 42
0.2000000000020988
 10
1163.322235835361
 20
1640.435406091033
 10
1169.222235835361
 20
1640.435406091033
 10
1169.222235835361
 20
1674.435406091033
 10
1237.222235835361
 20
1674.435406091033
 10
1237.222235835361
 20
1708.435406091033
 10
1240.222235835361
 20
1708.435406091033
 10
1240.222235835361
 20
1711.335406091033
 10
1243.222235835361
 20
1711.335406091033
 10
1243.222235835361
 20
1717.535406091033
 10
1240.222235835361
 20
1717.535406091033
 10
1240.222235835361
 20
1720.435406091033
 10
1231.322235835361
 20
1720.435406091033
 42
0.2000000000021101
  0
LWPOLYLINE
  5
3C5
330
1F
100
AcDbEntity
  8
Default
100
AcDbPolyline
 90
       38
 70
     1
 43
0.0
 10
1252.12223583536
 20
1705.535406091033
 10
1249.222235835361
 20
1705.535406091033
 10
1249.222235835361
 20
1713.835406091033
 10
1252.122235835361
 20
1713.835406091033
 42
0.2000000000020988
 10
1252.322235835361
 20
1713.835406091033
 10
1255.222235835361
 20
1713.835406091033
 10
1255.222235835361
 20
1717.135406091033
 10
1246.222235835361
 20
1717.135406091033
 10
1246.222235835361
 20
1671.535406091033
 10
1178.222235835361
 20
1671.535406091033
 10
1178.222235835361
 20
1637.535406091033
 10
1175.222235835361
 20
1637.535406091033
 10
1175.222235835361
 20
1634.635406091033
 10
1172.222235835361
 20
1634.635406091033
 10
1172.222235835361
 20
1628.435406091033
 10
1175.222235835361
 20
1628.435406091033
 10
1175.222235835361
 20
1625.535406091033
 10
1178.222235835361
 20
1625.535406091033
 10
1178.222235835361
 20
1613.935406091033
 10
1187.222235835361
 20
1613.935406091033
 10
1187.222235835361
 20
1617.235406091033
 10
1184.322235835361
 20
1617.235406091033
 42
0.2000000000021084
 10
1184.122235835362
 20
1617.235406091033
 10
1181.222235835361
 20
1617.235406091033
 10
1181.222235835361
 20
1625.535406091033
 10
1184.12223583536
 20
1625.535406091033
 42
0.2000000000020988
 10
1184.322235835361
 20
1625.535406091033
 10
1190.222235835361
 20
1625.535406091033
 10
1190.222235835361
 20
1659.535406091033
 10
1258.222235835361
 20
1659.535406091033
 10
1258.222235835361
 20
1693.535406091033
 10
1261.222235835361
 20
1693.535406091033
 10
1261.222235835361
 20
1696.435406091033
 10
1264.222235835361
 20
1696.435406091033
 10
1264.222235835361
 20
1702.635406091033
 10
1261.222235835361
 20
1702.635406091033
 10
1261.222235835361
 20
1705.535406091033
 10
1252.322235835362
 20
1705.535406091033
 42
0.2000000000021101
  0
LWPOLYLINE
  5
3C6
330
1F
100
AcDbEntity
  8
Default
100
AcDbPolyline
 90
       38
 70
     1
 43
0.0
 10
1273.12223583536
 20
1690.635406091033
 10
1270.222235835361
 20
1690.635406091033
 10
1270.222235835361
 20
1698.935406091033
 10
1273.122235835361
 20
1698.935406091033
 42
0.2000000000020988
 10
1273.322235835361
 20
1698.935406091033
 10
1276.222235835361
 20
1698.935406091033
 10
1276.222235835361
 20
1702.235406091033
 10
1267.222235835361
 20
1702.235406091033
 10
1267.222235835361
 20
1656.635406091033
 10
1199.222235835361
 20
1656.635406091033
 10
1199.222235835361
 20
1622.635406091033
 10
1196.222235835361
 20
1622.635406091033
 10
1196.222235835361
 20
1619.735406091033
 10
1193.222235835361
 20
1619.735406091033
 10
1193.222235835361
 20
1613.535406091033
 10
1196.222235835361
 20
1613.535406091033
 10
1196.222235835361
 20
1610.635406091033
 10
1199.222235835361
 20
1610.635406091033
 10
1199.222235835361
 20
1599.035406091033
 10
1208.222235835361
 20
1599.035406091033
 10
1208.222235835361
 20
1602.335406091033
 10
1205.322235835361
 20
1602.335406091033
 42
0.2000000000021084
 10
1205.122235835361
 20
1602.335406091033
 10
1202.222235835361
 20
1602.335406091033
 10
1202.222235835361
 20
1610.635406091033
 10
1205.122235835361
 20
1610.635406091033
 42
0.2000000000020988
 10
1205.322235835361
 20
1610.635406091033
 10
1211.222235835361
 20
1610.635406091033
 10
1211.222235835361
 20
1644.635406091033
 10
1279.222235835361
 20
1644.635406091033
 10
1279.222235835361
 20
1678.635406091033
 10
1282.222235835361
 20
1678.635406091033
 10
1282.222235835361
 20
1681.535406091033
 10
1285.222235835361
 20
1681.535406091033
 10
1285.222235835361
 20
1687.735406091032
 10
1282.222235835361
 20
1687.735406091032
 10
1282.222235835361
 20
1690.635406091033
 10
1273.322235835361
 20
1690.635406091033
 42
0.2000000000021101
  0
LWPOLYLINE
  5
3C7
330
1F
100
AcDbEntity
  8
Default
100
AcDbPolyline
 90
       38
 70
     1
 43
0.0
 10
1294.12223583536
 20
1675.735406091033
 10
1291.222235835361
 20
1675.735406091033
 10
1291.222235835361
 20
1684.035406091033
 10
1294.122235835361
 20
1684.035406091033
 42
0.2000000000020988
 10
1294.322235835361
 20
1684.035406091033
 10
1297.222235835361
 20
1684.035406091033
 10
1297.222235835361
 20
1687.335406091033
 10
1288.222235835361
 20
1687.335406091033
 10
1288.222235835361
 20
1641.735406091033
 10
1220.222235835361
 20
1641.735406091033
 10
1220.222235835361
 20
1607.735406091033
 10
1217.222235835361
 20
1607.735406091033
 10
1217.222235835361
 20
1604.835406091033
 10
1214.222235835361
 20
1604.835406091033
 10
1214.222235835361
 20
1598.635406091033
 10
1217.222235835361
 20
1598.635406091033
 10
1217.222235835361
 20
1595.735406091033
 10
1220.222235835361
 20
1595.735406091033
 10
1220.222235835361
 20
1584.135406091033
 10
1229.222235835361
 20
1584.135406091033
 10
1229.222235835361
 20
1587.435406091033
 10
1226.322235835361
 20
1587.435406091033
 42
0.2000000000021084
 10
1226.122235835362
 20
1587.435406091033
 10
1223.222235835361
 20
1587.435406091033
 10
1223.222235835361
 20
1595.735406091033
 10
1226.12223583536
 20
1595.735406091033
 42
0.2000000000020988
 10
1226.322235835361
 20
1595.735406091033
 10
1232.222235835361
 20
1595.735406091033
 10
1232.222235835361
 20
1629.735406091033
 10
1300.222235835361
 20
1629.735406091033
 10
1300.222235835361
 20
1663.735406091033
 10
1303.222235835361
 20
1663.735406091033
 10
1303.222235835361
 20
1666.635406091033
 10
1306.222235835361
 20
1666.635406091033
 10
1306.222235835361
 20
1672.835406091033
 10
1303.222235835361
 20
1672.835406091033
 10
1303.222235835361
 20
1675.735406091033
 10
1294.322235835362
 20
1675.735406091033
 42
0.2000000000021101
  0
LWPOLYLINE
  5
3C8
330
1F
100
AcDbEntity
  8
Default
100
AcDbPolyline
 90
       38
 70
     1
 43
0.0
 10
1046.072946152004
 20
1696.731270389763
 10
1043.172946152004
 20
1696.731270389763
 10
1043.172946152004
 20
1705.031270389764
 10
1046.072946152004
 20
1705.031270389764
 42
0.2000000000020988
 10
1046.272946152004
 20
1705.031270389764
 10
1049.172946152004
 20
1705.031270389764
 10
1049.172946152004
 20
1708.331270389764
 10
1040.172946152004
 20
1708.331270389764
 10
1040.172946152004
 20
1662.731270389764
 10
972.1729461520045
 20
1662.731270389764
 10
972.1729461520045
 20
1628.731270389764
 10
969.1729461520043
 20
1628.731270389764
 10
969.1729461520043
 20
1625.831270389763
 10
966.1729461520044
 20
1625.831270389763
 10
966.1729461520044
 20
1619.631270389764
 10
969.1729461520043
 20
1619.631270389764
 10
969.1729461520043
 20
1616.731270389763
 10
972.1729461520045
 20
1616.731270389763
 10
972.1729461520045
 20
1605.131270389764
 10
981.1729461520044
 20
1605.131270389764
 10
981.1729461520044
 20
1608.431270389764
 10
978.2729461520043
 20
1608.431270389764
 42
0.2000000000021084
 10
978.0729461520049
 20
1608.431270389764
 10
975.1729461520044
 20
1608.431270389764
 10
975.1729461520044
 20
1616.731270389763
 10
978.072946152004
 20
1616.731270389763
 42
0.2000000000020988
 10
978.2729461520043
 20
1616.731270389763
 10
984.1729461520044
 20
1616.731270389763
 10
984.1729461520044
 20
1650.731270389763
 10
1052.172946152004
 20
1650.731270389763
 10
1052.172946152004
 20
1684.731270389763
 10
1055.172946152004
 20
1684.731270389763
 10
1055.172946152004
 20
1687.631270389764
 10
1058.172946152004
 20
1687.631270389764
 10
1058.172946152004
 20
1693.831270389764
 10
1055.172946152004
 20
1693.831270389764
 10
1055.172946152004
 20
1696.731270389763
 10
1046.272946152005
 20
1696.731270389763
 42
0.2000000000021101
  0
LWPOLYLINE
  5
3C9
330
1F
100
AcDbEntity
  8
Default
100
AcDbPolyline
 90
       38
 70
     1
 43
0.0
 10
1067.072946152004
 20
1681.831270389763
 10
1064.172946152004
 20
1681.831270389763
 10
1064.172946152004
 20
1690.131270389764
 10
1067.072946152004
 20
1690.131270389764
 42
0.2000000000020988
 10
1067.272946152004
 20
1690.131270389764
 10
1070.172946152004
 20
1690.131270389764
 10
1070.172946152004
 20
1693.431270389763
 10
1061.172946152004
 20
1693.431270389763
 10
1061.172946152004
 20
1647.831270389763
 10
993.1729461520044
 20
1647.831270389763
 10
993.1729461520044
 20
1613.831270389763
 10
990.1729461520044
 20
1613.831270389763
 10
990.1729461520044
 20
1610.931270389763
 10
987.1729461520045
 20
1610.931270389763
 10
987.1729461520045
 20
1604.731270389764
 10
990.1729461520044
 20
1604.731270389764
 10
990.1729461520044
 20
1601.831270389763
 10
993.1729461520044
 20
1601.831270389763
 10
993.1729461520044
 20
1590.231270389764
 10
1002.172946152004
 20
1590.231270389764
 10
1002.172946152004
 20
1593.531270389764
 10
999.2729461520044
 20
1593.531270389764
 42
0.2000000000021084
 10
999.072946152005
 20
1593.531270389764
 10
996.1729461520045
 20
1593.531270389764
 10
996.1729461520045
 20
1601.831270389763
 10
999.0729461520041
 20
1601.831270389763
 42
0.2000000000020988
 10
999.2729461520044
 20
1601.831270389763
 10
1005.172946152004
 20
1601.831270389763
 10
1005.172946152004
 20
1635.831270389763
 10
1073.172946152004
 20
1635.831270389763
 10
1073.172946152004
 20
1669.831270389763
 10
1076.172946152004
 20
1669.831270389763
 10
1076.172946152004
 20
1672.731270389764
 10
1079.172946152004
 20
1672.731270389764
 10
1079.172946152004
 20
1678.931270389763
 10
1076.172946152004
 20
1678.931270389763
 10
1076.172946152004
 20
1681.831270389763
 10
1067.272946152005
 20
1681.831270389763
 42
0.2000000000021101
  0
LWPOLYLINE
  5
3CA
330
1F
100
AcDbEntity
  8
Default
100
AcDbPolyline
 90
       38
 70
     1
 43
0.0
 10
1088.072946152004
 20
1666.931270389763
 10
1085.172946152004
 20
1666.931270389763
 10
1085.172946152004
 20
1675.231270389764
 10
1088.072946152004
 20
1675.231270389764
 42
0.2000000000020988
 10
1088.272946152004
 20
1675.231270389764
 10
1091.172946152004
 20
1675.231270389764
 10
1091.172946152004
 20
1678.531270389763
 10
1082.172946152004
 20
1678.531270389763
 10
1082.172946152004
 20
1632.931270389763
 10
1014.172946152004
 20
1632.931270389763
 10
1014.172946152004
 20
1598.931270389763
 10
1011.172946152004
 20
1598.931270389763
 10
1011.172946152004
 20
1596.031270389763
 10
1008.172946152004
 20
1596.031270389763
 10
1008.172946152004
 20
1589.831270389763
 10
1011.172946152004
 20
1589.831270389763
 10
1011.172946152004
 20
1586.931270389763
 10
1014.172946152004
 20
1586.931270389763
 10
1014.172946152004
 20
1575.331270389763
 10
1023.172946152004
 20
1575.331270389763
 10
1023.172946152004
 20
1578.631270389764
 10
1020.272946152004
 20
1578.631270389764
 42
0.2000000000021084
 10
1020.072946152005
 20
1578.631270389764
 10
1017.172946152004
 20
1578.631270389764
 10
1017.172946152004
 20
1586.931270389763
 10
1020.072946152004
 20
1586.931270389763
 42
0.2000000000020988
 10
1020.272946152004
 20
1586.931270389763
 10
1026.172946152004
 20
1586.931270389763
 10
1026.172946152004
 20
1620.931270389763
 10
1094.172946152004
 20
1620.931270389763
 10
1094.172946152004
 20
1654.931270389763
 10
1097.172946152004
 20
1654.931270389763
 10
1097.172946152004
 20
1657.831270389763
 10
1100.172946152004
 20
1657.831270389763
 10
1100.172946152004
 20
1664.031270389763
 10
1097.172946152004
 20
1664.031270389763
 10
1097.172946152004
 20
1666.931270389763
 10
1088.272946152005
 20
1666.931270389763
 42
0.2000000000021101
  0
LWPOLYLINE
  5
3CB
330
1F
100
AcDbEntity
  8
Default
100
AcDbPolyline
 90
       38
 70
     1
 43
0.0
 10
1109.072946152004
 20
1652.031270389763
 10
1106.172946152004
 20
1652.031270389763
 10
1106.172946152004
 20
1660.331270389763
 10
1109.072946152004
 20
1660.331270389763
 42
0.2000000000020988
 10
1109.272946152004
 20
1660.331270389763
 10
1112.172946152004
 20
1660.331270389763
 10
1112.172946152004
 20
1663.631270389763
 10
1103.172946152004
 20
1663.631270389763
 10
1103.172946152004
 20
1618.031270389763
 10
1035.172946152004
 20
1618.031270389763
 10
1035.172946152004
 20
1584.031270389763
 10
1032.172946152004
 20
1584.031270389763
 10
1032.172946152004
 20
1581.131270389763
 10
1029.172946152004
 20
1581.131270389763
 10
1029.172946152004
 20
1574.931270389763
 10
1032.172946152004
 20
1574.931270389763
 10
1032.172946152004
 20
1572.031270389763
 10
1035.172946152004
 20
1572.031270389763
 10
1035.172946152004
 20
1560.431270389763
 10
1044.172946152004
 20
1560.431270389763
 10
1044.172946152004
 20
1563.731270389764
 10
1041.272946152004
 20
1563.731270389763
 42
0.2000000000021084
 10
1041.072946152005
 20
1563.731270389764
 10
1038.172946152004
 20
1563.731270389764
 10
1038.172946152004
 20
1572.031270389763
 10
1041.072946152004
 20
1572.031270389763
 42
0.2000000000020988
 10
1041.272946152004
 20
1572.031270389763
 10
1047.172946152004
 20
1572.031270389763
 10
1047.172946152004
 20
1606.031270389763
 10
1115.172946152004
 20
1606.031270389763
 10
1115.172946152004
 20
1640.031270389763
 10
1118.172946152004
 20
1640.031270389763
 10
1118.172946152004
 20
1642.931270389764
 10
1121.172946152004
 20
1642.931270389764
 10
1121.172946152004
 20
1649.131270389763
 10
1118.172946152004
 20
1649.131270389763
 10
1118.172946152004
 20
1652.031270389763
 10
1109.272946152005
 20
1652.031270389763
 42
0.2000000000021101
  0
LWPOLYLINE
  5
3CC
330
1F
100
AcDbEntity
  8
Default
100
AcDbPolyline
 90
       38
 70
     1
 43
0.0
 10
1248.12223583536
 20
1860.035406091033
 10
1245.222235835361
 20
1860.035406091033
 10
1245.222235835361
 20
1868.335406091033
 10
1248.122235835361
 20
1868.335406091033
 42
0.2000000000020988
 10
1248.322235835361
 20
1868.335406091033
 10
1251.222235835361
 20
1868.335406091033
 10
1251.222235835361
 20
1871.635406091033
 10
1242.222235835361
 20
1871.635406091033
 10
1242.222235835361
 20
1826.035406091033
 10
1174.222235835361
 20
1826.035406091033
 10
1174.222235835361
 20
1792.035406091033
 10
1171.222235835361
 20
1792.035406091033
 10
1171.222235835361
 20
1789.135406091033
 10
1168.222235835361
 20
1789.135406091033
 10
1168.222235835361
 20
1782.935406091033
 10
1171.222235835361
 20
1782.935406091033
 10
1171.222235835361
 20
1780.035406091033
 10
1174.222235835361
 20
1780.035406091033
 10
1174.222235835361
 20
1768.435406091033
 10
1183.222235835361
 20
1768.435406091033
 10
1183.222235835361
 20
1771.735406091034
 10
1180.322235835361
 20
1771.735406091033
 42
0.2000000000021084
 10
1180.122235835361
 20
1771.735406091034
 10
1177.222235835361
 20
1771.735406091034
 10
1177.222235835361
 20
1780.035406091033
 10
1180.12223583536
 20
1780.035406091033
 42
0.2000000000020988
 10
1180.322235835361
 20
1780.035406091033
 10
1186.222235835361
 20
1780.035406091033
 10
1186.222235835361
 20
1814.035406091033
 10
1254.222235835361
 20
1814.035406091033
 10
1254.222235835361
 20
1848.035406091033
 10
1257.222235835361
 20
1848.035406091033
 10
1257.222235835361
 20
1850.935406091033
 10
1260.222235835361
 20
1850.935406091033
 10
1260.222235835361
 20
1857.135406091033
 10
1257.222235835361
 20
1857.135406091033
 10
1257.222235835361
 20
1860.035406091033
 10
1248.322235835362
 20
1860.035406091033
 42
0.2000000000021101
  0
LWPOLYLINE
  5
3CD
330
1F
100
AcDbEntity
  8
Default
100
AcDbPolyline
 90
       38
 70
     1
 43
0.0
 10
1269.12223583536
 20
1845.135406091033
 10
1266.222235835361
 20
1845.135406091033
 10
1266.222235835361
 20
1853.435406091033
 10
1269.122235835361
 20
1853.435406091033
 42
0.2000000000020988
 10
1269.322235835361
 20
1853.435406091033
 10
1272.222235835361
 20
1853.435406091033
 10
1272.222235835361
 20
1856.735406091033
 10
1263.222235835361
 20
1856.735406091033
 10
1263.222235835361
 20
1811.135406091033
 10
1195.222235835361
 20
1811.135406091033
 10
1195.222235835361
 20
1777.135406091033
 10
1192.222235835361
 20
1777.135406091033
 10
1192.222235835361
 20
1774.235406091033
 10
1189.222235835361
 20
1774.235406091033
 10
1189.222235835361
 20
1768.035406091033
 10
1192.222235835361
 20
1768.035406091033
 10
1192.222235835361
 20
1765.135406091033
 10
1195.222235835361
 20
1765.135406091033
 10
1195.222235835361
 20
1753.535406091033
 10
1204.222235835361
 20
1753.535406091033
 10
1204.222235835361
 20
1756.835406091034
 10
1201.322235835361
 20
1756.835406091033
 42
0.2000000000021084
 10
1201.122235835361
 20
1756.835406091034
 10
1198.222235835361
 20
1756.835406091034
 10
1198.222235835361
 20
1765.135406091033
 10
1201.122235835361
 20
1765.135406091033
 42
0.2000000000020988
 10
1201.322235835361
 20
1765.135406091033
 10
1207.222235835361
 20
1765.135406091033
 10
1207.222235835361
 20
1799.135406091033
 10
1275.222235835361
 20
1799.135406091033
 10
1275.222235835361
 20
1833.135406091033
 10
1278.222235835361
 20
1833.135406091033
 10
1278.222235835361
 20
1836.035406091033
 10
1281.222235835361
 20
1836.035406091033
 10
1281.222235835361
 20
1842.235406091033
 10
1278.222235835361
 20
1842.235406091033
 10
1278.222235835361
 20
1845.135406091033
 10
1269.322235835361
 20
1845.135406091033
 42
0.2000000000021101
  0
LWPOLYLINE
  5
3CE
330
1F
100
AcDbEntity
  8
Default
100
AcDbPolyline
 90
       38
 70
     1
 43
0.0
 10
1290.12223583536
 20
1830.235406091033
 10
1287.222235835361
 20
1830.235406091033
 10
1287.222235835361
 20
1838.535406091033
 10
1290.122235835361
 20
1838.535406091033
 42
0.2000000000020988
 10
1290.322235835361
 20
1838.535406091033
 10
1293.222235835361
 20
1838.535406091033
 10
1293.222235835361
 20
1841.835406091033
 10
1284.222235835361
 20
1841.835406091033
 10
1284.222235835361
 20
1796.235406091033
 10
1216.222235835361
 20
1796.235406091033
 10
1216.222235835361
 20
1762.235406091033
 10
1213.222235835361
 20
1762.235406091033
 10
1213.222235835361
 20
1759.335406091033
 10
1210.222235835361
 20
1759.335406091033
 10
1210.222235835361
 20
1753.135406091033
 10
1213.222235835361
 20
1753.135406091033
 10
1213.222235835361
 20
1750.235406091033
 10
1216.222235835361
 20
1750.235406091033
 10
1216.222235835361
 20
1738.635406091033
 10
1225.222235835361
 20
1738.635406091033
 10
1225.222235835361
 20
1741.935406091033
 10
1222.322235835361
 20
1741.935406091033
 42
0.2000000000021084
 10
1222.122235835361
 20
1741.935406091033
 10
1219.222235835361
 20
1741.935406091033
 10
1219.222235835361
 20
1750.235406091033
 10
1222.12223583536
 20
1750.235406091033
 42
0.2000000000020988
 10
1222.322235835361
 20
1750.235406091033
 10
1228.222235835361
 20
1750.235406091033
 10
1228.222235835361
 20
1784.235406091033
 10
1296.222235835361
 20
1784.235406091033
 10
1296.222235835361
 20
1818.235406091033
 10
1299.222235835361
 20
1818.235406091033
 10
1299.222235835361
 20
1821.135406091033
 10
1302.222235835361
 20
1821.135406091033
 10
1302.222235835361
 20
1827.335406091033
 10
1299.222235835361
 20
1827.335406091033
 10
1299.222235835361
 20
1830.235406091033
 10
1290.322235835361
 20
1830.235406091033
 42
0.2000000000021101
  0
LWPOLYLINE
  5
3CF
330
1F
100
AcDbEntity
  8
Default
100
AcDbPolyline
 90
       38
 70
     1
 43
0.0
 10
1311.12223583536
 20
1815.335406091033
 10
1308.222235835361
 20
1815.335406091033
 10
1308.222235835361
 20
1823.635406091033
 10
1311.122235835361
 20
1823.635406091033
 42
0.2000000000020988
 10
1311.322235835361
 20
1823.635406091033
 10
1314.222235835361
 20
1823.635406091033
 10
1314.222235835361
 20
1826.935406091033
 10
1305.222235835361
 20
1826.935406091033
 10
1305.222235835361
 20
1781.335406091033
 10
1237.222235835361
 20
1781.335406091033
 10
1237.222235835361
 20
1747.335406091033
 10
1234.222235835361
 20
1747.335406091033
 10
1234.222235835361
 20
1744.435406091033
 10
1231.222235835361
 20
1744.435406091033
 10
1231.222235835361
 20
1738.235406091033
 10
1234.222235835361
 20
1738.235406091033
 10
1234.222235835361
 20
1735.335406091033
 10
1237.222235835361
 20
1735.335406091033
 10
1237.222235835361
 20
1723.735406091033
 10
1246.222235835361
 20
1723.735406091033
 10
1246.222235835361
 20
1727.035406091033
 10
1243.322235835361
 20
1727.035406091033
 42
0.2000000000021084
 10
1243.122235835361
 20
1727.035406091033
 10
1240.222235835361
 20
1727.035406091033
 10
1240.222235835361
 20
1735.335406091033
 10
1243.122235835361
 20
1735.335406091033
 42
0.2000000000020988
 10
1243.322235835361
 20
1735.335406091033
 10
1249.222235835361
 20
1735.335406091033
 10
1249.222235835361
 20
1769.335406091033
 10
1317.222235835361
 20
1769.335406091033
 10
1317.222235835361
 20
1803.335406091033
 10
1320.222235835361
 20
1803.335406091033
 10
1320.222235835361
 20
1806.235406091033
 10
1323.222235835361
 20
1806.235406091033
 10
1323.222235835361
 20
1812.435406091033
 10
1320.222235835361
 20
1812.435406091033
 10
1320.222235835361
 20
1815.335406091033
 10
1311.322235835362
 20
1815.335406091033
 42
0.2000000000021101
  0
LWPOLYLINE
  5
3DD
330
1F
100
AcDbEntity
  8
Default
100
AcDbPolyline
 90
        4
 70
     1
 43
0.0
 10
1001.170570197963
 20
1734.349184659783
 10
989.1705701979635
 20
1734.349184659783
 10
989.1705701979635
 20
1740.549184659782
 10
1001.170570197963
 20
1740.549184659782
  0
LWPOLYLINE
  5
3DE
330
1F
100
AcDbEntity
  8
Default
100
AcDbPolyline
 90
        4
 70
     1
 43
0.0
 10
1019.565591370224
 20
1713.957399671966
 10
1031.565591370224
 20
1713.957399671966
 10
1031.565591370224
 20
1710.657399671966
 10
1019.565591370224
 20
1710.657399671966
  0
LWPOLYLINE
  5
3E2
330
1F
100
AcDbEntity
  8
Default
100
AcDbPolyline
 90
       12
 70
     1
 43
0.0
 10
972.2682691487628
 20
1671.697805048141
 42
-0.2000000000024457
 10
972.4682691487613
 20
1671.697805048141
 10
975.368269148762
 20
1671.697805048141
 10
975.368269148762
 20
1668.39780504814
 10
966.368269148762
 20
1668.39780504814
 10
966.368269148762
 20
1679.99780504814
 10
975.368269148762
 20
1679.99780504814
 10
975.368269148762
 20
1676.69780504814
 10
972.4682691487618
 20
1676.69780504814
 42
-0.2000000000024457
 10
972.2682691487628
 20
1676.69780504814
 10
969.3682691487619
 20
1676.69780504814
 10
969.3682691487619
 20
1671.697805048141
  0
LWPOLYLINE
  5
3E4
330
1F
100
AcDbEntity
  8
Default
100
AcDbPolyline
 90
        4
 70
     1
 43
0.0
 10
1001.170570197963
 20
1725.149184659784
 10
989.1705701979635
 20
1725.149184659784
 10
989.1705701979635
 20
1731.349184659783
 10
1001.170570197963
 20
1731.349184659783
  0
LWPOLYLINE
  5
3E5
330
1F
100
AcDbEntity
  8
Default
100
AcDbPolyline
 90
        4
 70
     1
 43
0.0
 10
1001.170570197963
 20
1715.949184659785
 10
989.1705701979635
 20
1715.949184659785
 10
989.1705701979635
 20
1722.149184659784
 10
1001.170570197963
 20
1722.149184659784
  0
LWPOLYLINE
  5
3E6
330
1F
100
AcDbEntity
  8
Default
100
AcDbPolyline
 90
        4
 70
     1
 43
0.0
 10
1001.170570197963
 20
1706.749184659785
 10
989.1705701979635
 20
1706.749184659785
 10
989.1705701979635
 20
1712.949184659785
 10
1001.170570197963
 20
1712.949184659785
  0
LWPOLYLINE
  5
3E7
330
1F
100
AcDbEntity
  8
Default
100
AcDbPolyline
 90
        4
 70
     1
 43
0.0
 10
1001.170570197963
 20
1697.549184659786
 10
989.1705701979635
 20
1697.549184659786
 10
989.1705701979635
 20
1703.749184659785
 10
1001.170570197963
 20
1703.749184659785
  0
LWPOLYLINE
  5
3E8
330
1F
100
AcDbEntity
  8
Default
100
AcDbPolyline
 90
        4
 70
     1
 43
0.0
 10
1001.170570197963
 20
1688.349184659787
 10
989.1705701979635
 20
1688.349184659787
 10
989.1705701979635
 20
1694.549184659786
 10
1001.170570197963
 20
1694.549184659786
  0
LWPOLYLINE
  5
3E9
330
1F
100
AcDbEntity
  8
Default
100
AcDbPolyline
 90
        4
 70
     1
 43
0.0
 10
1001.170570197963
 20
1679.149184659788
 10
989.1705701979635
 20
1679.149184659788
 10
989.1705701979635
 20
1685.349184659787
 10
1001.170570197963
 20
1685.349184659787
  0
LWPOLYLINE
  5
3EA
330
1F
100
AcDbEntity
  8
Default
100
AcDbPolyline
 90
        4
 70
     1
 43
0.0
 10
1001.170570197963
 20
1669.949184659789
 10
989.1705701979635
 20
1669.949184659789
 10
989.1705701979635
 20
1676.149184659788
 10
1001.170570197963
 20
1676.149184659788
  0
LWPOLYLINE
  5
3EB
330
1F
100
AcDbEntity
  8
Default
100
AcDbPolyline
 90
        4
 70
     1
 43
0.0
 10
1019.565591370224
 20
1707.657399671966
 10
1031.565591370224
 20
1707.657399671966
 10
1031.565591370224
 20
1704.357399671965
 10
1019.565591370224
 20
1704.357399671965
  0
LWPOLYLINE
  5
3EC
330
1F
100
AcDbEntity
  8
Default
100
AcDbPolyline
 90
        4
 70
     1
 43
0.0
 10
1019.565591370224
 20
1701.357399671965
 10
1031.565591370224
 20
1701.357399671965
 10
1031.565591370224
 20
1698.057399671965
 10
1019.565591370224
 20
1698.057399671965
  0
LWPOLYLINE
  5
3ED
330
1F
100
AcDbEntity
  8
Default
100
AcDbPolyline
 90
        4
 70
     1
 43
0.0
 10
1019.565591370224
 20
1695.057399671965
 10
1031.565591370224
 20
1695.057399671965
 10
1031.565591370224
 20
1691.757399671964
 10
1019.565591370224
 20
1691.757399671964
  0
LWPOLYLINE
  5
3EE
330
1F
100
AcDbEntity
  8
Default
100
AcDbPolyline
 90
        4
 70
     1
 43
0.0
 10
1019.565591370224
 20
1688.757399671965
 10
1031.565591370224
 20
1688.757399671965
 10
1031.565591370224
 20
1685.457399671964
 10
1019.565591370224
 20
1685.457399671964
  0
LWPOLYLINE
  5
3EF
330
1F
100
AcDbEntity
  8
Default
100
AcDbPolyline
 90
        4
 70
     1
 43
0.0
 10
1019.565591370224
 20
1682.457399671964
 10
1031.565591370224
 20
1682.457399671964
 10
1031.565591370224
 20
1679.157399671964
 10
1019.565591370224
 20
1679.157399671964
  0
LWPOLYLINE
  5
3F0
330
1F
100
AcDbEntity
  8
Default
100
AcDbPolyline
 90
        4
 70
     1
 43
0.0
 10
1019.565591370224
 20
1676.157399671964
 10
1031.565591370224
 20
1676.157399671964
 10
1031.565591370224
 20
1672.857399671963
 10
1019.565591370224
 20
1672.857399671963
  0
LWPOLYLINE
  5
3F1
330
1F
100
AcDbEntity
  8
Default
100
AcDbPolyline
 90
        4
 70
     1
 43
0.0
 10
1019.565591370224
 20
1669.857399671963
 10
1031.565591370224
 20
1669.857399671963
 10
1031.565591370224
 20
1666.557399671963
 10
1019.565591370224
 20
1666.557399671963
  0
LWPOLYLINE
  5
3F2
330
1F
100
AcDbEntity
  8
Default
100
AcDbPolyline
 90
       12
 70
     1
 43
0.0
 10
972.2682691487628
 20
1686.29780504814
 42
-0.2000000000024457
 10
972.4682691487613
 20
1686.29780504814
 10
975.368269148762
 20
1686.29780504814
 10
975.368269148762
 20
1682.99780504814
 10
966.368269148762
 20
1682.99780504814
 10
966.368269148762
 20
1694.59780504814
 10
975.368269148762
 20
1694.59780504814
 10
975.368269148762
 20
1691.297805048139
 10
972.4682691487618
 20
1691.29780504814
 42
-0.2000000000024457
 10
972.2682691487628
 20
1691.297805048139
 10
969.3682691487619
 20
1691.297805048139
 10
969.3682691487619
 20
1686.29780504814
  0
LWPOLYLINE
  5
3F3
330
1F
100
AcDbEntity
  8
Default
100
AcDbPolyline
 90
       12
 70
     1
 43
0.0
 10
972.2682691487628
 20
1700.89780504814
 42
-0.2000000000024457
 10
972.4682691487613
 20
1700.89780504814
 10
975.368269148762
 20
1700.89780504814
 10
975.368269148762
 20
1697.59780504814
 10
966.368269148762
 20
1697.59780504814
 10
966.368269148762
 20
1709.19780504814
 10
975.368269148762
 20
1709.19780504814
 10
975.368269148762
 20
1705.897805048139
 10
972.4682691487618
 20
1705.89780504814
 42
-0.2000000000024457
 10
972.2682691487628
 20
1705.897805048139
 10
969.3682691487619
 20
1705.897805048139
 10
969.3682691487619
 20
1700.89780504814
  0
LWPOLYLINE
  5
3F4
330
1F
100
AcDbEntity
  8
Default
100
AcDbPolyline
 90
       12
 70
     1
 43
0.0
 10
972.2682691487628
 20
1715.49780504814
 42
-0.2000000000024457
 10
972.4682691487613
 20
1715.49780504814
 10
975.368269148762
 20
1715.49780504814
 10
975.368269148762
 20
1712.19780504814
 10
966.368269148762
 20
1712.19780504814
 10
966.368269148762
 20
1723.79780504814
 10
975.368269148762
 20
1723.79780504814
 10
975.368269148762
 20
1720.49780504814
 10
972.4682691487618
 20
1720.49780504814
 42
-0.2000000000024457
 10
972.2682691487628
 20
1720.49780504814
 10
969.3682691487619
 20
1720.49780504814
 10
969.3682691487619
 20
1715.49780504814
  0
LWPOLYLINE
  5
3F5
330
1F
100
AcDbEntity
  8
Default
100
AcDbPolyline
 90
       12
 70
     1
 43
0.0
 10
972.2682691487628
 20
1730.09780504814
 42
-0.2000000000024457
 10
972.4682691487613
 20
1730.09780504814
 10
975.368269148762
 20
1730.09780504814
 10
975.368269148762
 20
1726.79780504814
 10
966.368269148762
 20
1726.79780504814
 10
966.368269148762
 20
1738.39780504814
 10
975.368269148762
 20
1738.39780504814
 10
975.368269148762
 20
1735.097805048139
 10
972.4682691487618
 20
1735.097805048139
 42
-0.2000000000024457
 10
972.2682691487628
 20
1735.097805048139
 10
969.3682691487619
 20
1735.097805048139
 10
969.3682691487619
 20
1730.09780504814
  0
LWPOLYLINE
  5
3F6
330
1F
100
AcDbEntity
  8
Default
100
AcDbPolyline
 90
       12
 70
     1
 43
0.0
 10
972.2682691487628
 20
1744.69780504814
 42
-0.2000000000024457
 10
972.4682691487613
 20
1744.69780504814
 10
975.368269148762
 20
1744.69780504814
 10
975.368269148762
 20
1741.39780504814
 10
966.368269148762
 20
1741.39780504814
 10
966.368269148762
 20
1752.99780504814
 10
975.368269148762
 20
1752.99780504814
 10
975.368269148762
 20
1749.697805048139
 10
972.4682691487618
 20
1749.697805048139
 42
-0.2000000000024457
 10
972.2682691487628
 20
1749.697805048139
 10
969.3682691487619
 20
1749.697805048139
 10
969.3682691487619
 20
1744.69780504814
  0
LWPOLYLINE
  5
3F7
330
1F
100
AcDbEntity
  8
Default
100
AcDbPolyline
 90
       12
 70
     1
 43
0.0
 10
972.2682691487628
 20
1759.29780504814
 42
-0.2000000000024457
 10
972.4682691487613
 20
1759.29780504814
 10
975.368269148762
 20
1759.29780504814
 10
975.368269148762
 20
1755.99780504814
 10
966.368269148762
 20
1755.99780504814
 10
966.368269148762
 20
1767.59780504814
 10
975.368269148762
 20
1767.59780504814
 10
975.368269148762
 20
1764.297805048139
 10
972.4682691487618
 20
1764.297805048139
 42
-0.2000000000024457
 10
972.2682691487628
 20
1764.297805048139
 10
969.3682691487619
 20
1764.297805048139
 10
969.3682691487619
 20
1759.29780504814
  0
LWPOLYLINE
  5
3F8
330
1F
100
AcDbEntity
  8
Default
100
AcDbPolyline
 90
       12
 70
     1
 43
0.0
 10
972.2682691487628
 20
1773.89780504814
 42
-0.2000000000024457
 10
972.4682691487613
 20
1773.89780504814
 10
975.368269148762
 20
1773.89780504814
 10
975.368269148762
 20
1770.59780504814
 10
966.368269148762
 20
1770.59780504814
 10
966.368269148762
 20
1782.197805048139
 10
975.368269148762
 20
1782.197805048139
 10
975.368269148762
 20
1778.897805048139
 10
972.4682691487618
 20
1778.897805048139
 42
-0.2000000000024457
 10
972.2682691487628
 20
1778.897805048139
 10
969.3682691487619
 20
1778.897805048139
 10
969.3682691487619
 20
1773.89780504814
  0
LWPOLYLINE
  5
3F9
330
1F
100
AcDbEntity
  8
Default
100
AcDbPolyline
 90
        4
 70
     1
 43
0.0
 10
1263.109200941509
 20
1759.467268308669
 10
1275.109200941509
 20
1759.467268308669
 10
1275.109200941509
 20
1756.167268308669
 10
1263.109200941509
 20
1756.167268308669
  0
LWPOLYLINE
  5
3FA
330
1F
100
AcDbEntity
  8
Default
100
AcDbPolyline
 90
        4
 70
     1
 43
0.0
 10
1263.109200941509
 20
1753.167268308668
 10
1275.109200941509
 20
1753.167268308668
 10
1275.109200941509
 20
1749.867268308668
 10
1263.109200941509
 20
1749.867268308668
  0
LWPOLYLINE
  5
3FB
330
1F
100
AcDbEntity
  8
Default
100
AcDbPolyline
 90
        4
 70
     1
 43
0.0
 10
1263.109200941509
 20
1746.867268308668
 10
1275.109200941509
 20
1746.867268308668
 10
1275.109200941509
 20
1743.567268308668
 10
1263.109200941509
 20
1743.567268308668
  0
LWPOLYLINE
  5
3FC
330
1F
100
AcDbEntity
  8
Default
100
AcDbPolyline
 90
        4
 70
     1
 43
0.0
 10
1263.109200941509
 20
1740.567268308668
 10
1275.109200941509
 20
1740.567268308668
 10
1275.109200941509
 20
1737.267268308667
 10
1263.109200941509
 20
1737.267268308667
  0
LWPOLYLINE
  5
3FD
330
1F
100
AcDbEntity
  8
Default
100
AcDbPolyline
 90
        4
 70
     1
 43
0.0
 10
1263.109200941509
 20
1734.267268308667
 10
1275.109200941509
 20
1734.267268308667
 10
1275.109200941509
 20
1730.967268308667
 10
1263.109200941509
 20
1730.967268308667
  0
LWPOLYLINE
  5
3FE
330
1F
100
AcDbEntity
  8
Default
100
AcDbPolyline
 90
        4
 70
     1
 43
0.0
 10
1263.109200941509
 20
1727.967268308667
 10
1275.109200941509
 20
1727.967268308667
 10
1275.109200941509
 20
1724.667268308666
 10
1263.109200941509
 20
1724.667268308666
  0
LWPOLYLINE
  5
3FF
330
1F
100
AcDbEntity
  8
Default
100
AcDbPolyline
 90
        4
 70
     1
 43
0.0
 10
1263.109200941509
 20
1721.667268308667
 10
1275.109200941509
 20
1721.667268308667
 10
1275.109200941509
 20
1718.367268308666
 10
1263.109200941509
 20
1718.367268308666
  0
LWPOLYLINE
  5
400
330
1F
100
AcDbEntity
  8
Default
100
AcDbPolyline
 90
        4
 70
     1
 43
0.0
 10
1263.109200941509
 20
1715.367268308666
 10
1275.109200941509
 20
1715.367268308666
 10
1275.109200941509
 20
1712.067268308666
 10
1263.109200941509
 20
1712.067268308666
  0
LWPOLYLINE
  5
401
330
1F
100
AcDbEntity
  8
Default
100
AcDbPolyline
 90
        4
 70
     1
 43
0.0
 10
1298.906839214983
 20
1755.350675960288
 10
1286.906839214983
 20
1755.350675960288
 10
1286.906839214983
 20
1761.550675960287
 10
1298.906839214983
 20
1761.550675960287
  0
LWPOLYLINE
  5
402
330
1F
100
AcDbEntity
  8
Default
100
AcDbPolyline
 90
        4
 70
     1
 43
0.0
 10
1298.906839214983
 20
1746.150675960289
 10
1286.906839214983
 20
1746.150675960289
 10
1286.906839214983
 20
1752.350675960288
 10
1298.906839214983
 20
1752.350675960288
  0
LWPOLYLINE
  5
403
330
1F
100
AcDbEntity
  8
Default
100
AcDbPolyline
 90
        4
 70
     1
 43
0.0
 10
1298.906839214983
 20
1736.95067596029
 10
1286.906839214983
 20
1736.95067596029
 10
1286.906839214983
 20
1743.150675960289
 10
1298.906839214983
 20
1743.150675960289
  0
LWPOLYLINE
  5
404
330
1F
100
AcDbEntity
  8
Default
100
AcDbPolyline
 90
        4
 70
     1
 43
0.0
 10
1298.906839214983
 20
1727.75067596029
 10
1286.906839214983
 20
1727.75067596029
 10
1286.906839214983
 20
1733.95067596029
 10
1298.906839214983
 20
1733.95067596029
  0
LWPOLYLINE
  5
405
330
1F
100
AcDbEntity
  8
Default
100
AcDbPolyline
 90
        4
 70
     1
 43
0.0
 10
1298.906839214983
 20
1718.550675960291
 10
1286.906839214983
 20
1718.550675960291
 10
1286.906839214983
 20
1724.75067596029
 10
1298.906839214983
 20
1724.75067596029
  0
LWPOLYLINE
  5
406
330
1F
100
AcDbEntity
  8
Default
100
AcDbPolyline
 90
        4
 70
     1
 43
0.0
 10
1298.906839214983
 20
1709.350675960292
 10
1286.906839214983
 20
1709.350675960292
 10
1286.906839214983
 20
1715.550675960291
 10
1298.906839214983
 20
1715.550675960291
  0
LWPOLYLINE
  5
407
330
1F
100
AcDbEntity
  8
Default
100
AcDbPolyline
 90
        4
 70
     1
 43
0.0
 10
1298.906839214983
 20
1700.150675960293
 10
1286.906839214983
 20
1700.150675960293
 10
1286.906839214983
 20
1706.350675960292
 10
1298.906839214983
 20
1706.350675960292
  0
LWPOLYLINE
  5
408
330
1F
100
AcDbEntity
  8
Default
100
AcDbPolyline
 90
        4
 70
     1
 43
0.0
 10
1298.906839214983
 20
1690.950675960294
 10
1286.906839214983
 20
1690.950675960294
 10
1286.906839214983
 20
1697.150675960293
 10
1298.906839214983
 20
1697.150675960293
  0
LWPOLYLINE
  5
409
330
1F
100
AcDbEntity
  8
Default
100
AcDbPolyline
 90
       12
 70
     1
 43
0.0
 10
1316.995915090449
 20
1644.70960013939
 42
-0.2000000000024457
 10
1317.195915090447
 20
1644.70960013939
 10
1320.095915090448
 20
1644.70960013939
 10
1320.095915090448
 20
1641.409600139389
 10
1311.095915090448
 20
1641.409600139389
 10
1311.095915090448
 20
1653.009600139389
 10
1320.095915090448
 20
1653.009600139389
 10
1320.095915090448
 20
1649.709600139389
 10
1317.195915090448
 20
1649.709600139389
 42
-0.2000000000024457
 10
1316.995915090449
 20
1649.709600139389
 10
1314.095915090448
 20
1649.709600139389
 10
1314.095915090448
 20
1644.70960013939
  0
LWPOLYLINE
  5
40A
330
1F
100
AcDbEntity
  8
Default
100
AcDbPolyline
 90
       12
 70
     1
 43
0.0
 10
1316.995915090449
 20
1659.309600139389
 42
-0.2000000000024457
 10
1317.195915090447
 20
1659.309600139389
 10
1320.095915090448
 20
1659.309600139389
 10
1320.095915090448
 20
1656.009600139389
 10
1311.095915090448
 20
1656.009600139389
 10
1311.095915090448
 20
1667.609600139389
 10
1320.095915090448
 20
1667.609600139389
 10
1320.095915090448
 20
1664.309600139389
 10
1317.195915090448
 20
1664.309600139389
 42
-0.2000000000024457
 10
1316.995915090449
 20
1664.309600139389
 10
1314.095915090448
 20
1664.309600139389
 10
1314.095915090448
 20
1659.309600139389
  0
LWPOLYLINE
  5
40B
330
1F
100
AcDbEntity
  8
Default
100
AcDbPolyline
 90
       12
 70
     1
 43
0.0
 10
1316.995915090449
 20
1673.90960013939
 42
-0.2000000000024457
 10
1317.195915090447
 20
1673.90960013939
 10
1320.095915090448
 20
1673.90960013939
 10
1320.095915090448
 20
1670.609600139389
 10
1311.095915090448
 20
1670.609600139389
 10
1311.095915090448
 20
1682.209600139389
 10
1320.095915090448
 20
1682.209600139389
 10
1320.095915090448
 20
1678.909600139389
 10
1317.195915090448
 20
1678.909600139389
 42
-0.2000000000024457
 10
1316.995915090449
 20
1678.909600139389
 10
1314.095915090448
 20
1678.909600139389
 10
1314.095915090448
 20
1673.90960013939
  0
LWPOLYLINE
  5
40C
330
1F
100
AcDbEntity
  8
Default
100
AcDbPolyline
 90
       12
 70
     1
 43
0.0
 10
1316.995915090449
 20
1688.509600139389
 42
-0.2000000000024457
 10
1317.195915090447
 20
1688.509600139389
 10
1320.095915090448
 20
1688.509600139389
 10
1320.095915090448
 20
1685.209600139389
 10
1311.095915090448
 20
1685.209600139389
 10
1311.095915090448
 20
1696.809600139389
 10
1320.095915090448
 20
1696.809600139389
 10
1320.095915090448
 20
1693.509600139389
 10
1317.195915090448
 20
1693.509600139389
 42
-0.2000000000024457
 10
1316.995915090449
 20
1693.509600139389
 10
1314.095915090448
 20
1693.509600139389
 10
1314.095915090448
 20
1688.509600139389
  0
LWPOLYLINE
  5
40D
330
1F
100
AcDbEntity
  8
Default
100
AcDbPolyline
 90
       12
 70
     1
 43
0.0
 10
1316.995915090449
 20
1703.109600139389
 42
-0.2000000000024457
 10
1317.195915090447
 20
1703.109600139389
 10
1320.095915090448
 20
1703.109600139389
 10
1320.095915090448
 20
1699.809600139389
 10
1311.095915090448
 20
1699.809600139389
 10
1311.095915090448
 20
1711.409600139389
 10
1320.095915090448
 20
1711.409600139389
 10
1320.095915090448
 20
1708.109600139388
 10
1317.195915090448
 20
1708.109600139389
 42
-0.2000000000024457
 10
1316.995915090449
 20
1708.109600139388
 10
1314.095915090448
 20
1708.109600139388
 10
1314.095915090448
 20
1703.109600139389
  0
LWPOLYLINE
  5
40E
330
1F
100
AcDbEntity
  8
Default
100
AcDbPolyline
 90
       12
 70
     1
 43
0.0
 10
1316.995915090449
 20
1717.709600139389
 42
-0.2000000000024457
 10
1317.195915090447
 20
1717.709600139389
 10
1320.095915090448
 20
1717.709600139389
 10
1320.095915090448
 20
1714.409600139389
 10
1311.095915090448
 20
1714.409600139389
 10
1311.095915090448
 20
1726.009600139389
 10
1320.095915090448
 20
1726.009600139389
 10
1320.095915090448
 20
1722.709600139388
 10
1317.195915090448
 20
1722.709600139388
 42
-0.2000000000024457
 10
1316.995915090449
 20
1722.709600139388
 10
1314.095915090448
 20
1722.709600139388
 10
1314.095915090448
 20
1717.709600139389
  0
LWPOLYLINE
  5
40F
330
1F
100
AcDbEntity
  8
Default
100
AcDbPolyline
 90
       12
 70
     1
 43
0.0
 10
1316.995915090449
 20
1732.309600139389
 42
-0.2000000000024457
 10
1317.195915090447
 20
1732.309600139389
 10
1320.095915090448
 20
1732.309600139389
 10
1320.095915090448
 20
1729.009600139389
 10
1311.095915090448
 20
1729.009600139389
 10
1311.095915090448
 20
1740.609600139389
 10
1320.095915090448
 20
1740.609600139389
 10
1320.095915090448
 20
1737.309600139388
 10
1317.195915090448
 20
1737.309600139388
 42
-0.2000000000024457
 10
1316.995915090449
 20
1737.309600139388
 10
1314.095915090448
 20
1737.309600139388
 10
1314.095915090448
 20
1732.309600139389
  0
LWPOLYLINE
  5
410
330
1F
100
AcDbEntity
  8
Default
100
AcDbPolyline
 90
       12
 70
     1
 43
0.0
 10
1316.995915090449
 20
1746.909600139389
 42
-0.2000000000024457
 10
1317.195915090447
 20
1746.909600139389
 10
1320.095915090448
 20
1746.909600139389
 10
1320.095915090448
 20
1743.609600139389
 10
1311.095915090448
 20
1743.609600139389
 10
1311.095915090448
 20
1755.209600139389
 10
1320.095915090448
 20
1755.209600139389
 10
1320.095915090448
 20
1751.909600139388
 10
1317.195915090448
 20
1751.909600139388
 42
-0.2000000000024457
 10
1316.995915090449
 20
1751.909600139388
 10
1314.095915090448
 20
1751.909600139388
 10
1314.095915090448
 20
1746.909600139389
  0
ENDSEC
  0
SECTION
  2
OBJECTS
  0
DICTIONARY
  5
C
330
0
100
AcDbDictionary
281
     1
  3
ACAD_CIP_PREVIOUS_PRODUCT_INFO
350
2E4
  3
ACAD_COLOR
350
2DF
  3
ACAD_DETAILVIEWSTYLE
350
2DB
  3
ACAD_GROUP
350
D
  3
ACAD_LAYOUT
350
1A
  3
ACAD_MATERIAL
350
43
  3
ACAD_MLEADERSTYLE
350
5B
  3
ACAD_MLINESTYLE
350
17
  3
ACAD_PLOTSETTINGS
350
19
  3
ACAD_PLOTSTYLENAME
350
E
  3
ACAD_SCALELIST
350
47
  3
ACAD_SECTIONVIEWSTYLE
350
2DC
  3
ACAD_TABLESTYLE
350
59
  3
ACAD_VISUALSTYLE
350
2A
  3
ACDB_RECOMPOSE_DATA
350
412
  3
AcDbVariableDictionary
350
2A0
  0
SUN
  5
5D
330
29
100
AcDbSun
 90
        1
290
     1
 63
     7
421
 16777215
 40
1.0
291
     1
 91
  2455826
 92
 54000000
292
     0
 70
     0
 71
   256
280
     1
  0
DICTIONARY
  5
3D0
330
10
100
AcDbDictionary
280
     1
281
     1
  3
ADSK_XREC_LAYER_RECONCILED
360
3D1
  0
DICTIONARY
  5
3D2
330
5F
100
AcDbDictionary
280
     1
281
     1
  3
ADSK_XREC_LAYER_RECONCILED
360
3D3
  0
DICTIONARY
  5
32D
330
1F
100
AcDbDictionary
280
     1
281
     1
  3
ACAD_SORTENTS
360
32E
  0
XRECORD
  5
2E4
102
{ACAD_REACTORS
330
C
102
}
330
C
100
AcDbXrecord
280
     1
300
ACD
300
2018
300

  0
DICTIONARY
  5
2DF
102
{ACAD_REACTORS
330
C
102
}
330
C
100
AcDbDictionary
281
     1
  0
DICTIONARY
  5
2DB
102
{ACAD_REACTORS
330
C
102
}
330
C
100
AcDbDictionary
281
     1
  3
Metric50
350
2E1
  0
DICTIONARY
  5
D
102
{ACAD_REACTORS
330
C
102
}
330
C
100
AcDbDictionary
281
     1
  0
DICTIONARY
  5
1A
102
{ACAD_REACTORS
330
C
102
}
330
C
100
AcDbDictionary
281
     1
  3
Layout1
350
1E
  3
Layout2
350
26
  3
Model
350
22
  0
DICTIONARY
  5
43
102
{ACAD_REACTORS
330
C
102
}
330
C
100
AcDbDictionary
281
     1
  3
ByBlock
350
45
  3
ByLayer
350
44
  3
Global
350
46
  0
DICTIONARY
  5
5B
102
{ACAD_REACTORS
330
C
102
}
330
C
100
AcDbDictionary
281
     1
  3
Standard
350
5C
  0
DICTIONARY
  5
17
102
{ACAD_REACTORS
330
C
102
}
330
C
100
AcDbDictionary
281
     1
  3
Standard
350
18
  0
DICTIONARY
  5
19
102
{ACAD_REACTORS
330
C
102
}
330
C
100
AcDbDictionary
281
     1
  0
ACDBDICTIONARYWDFLT
  5
E
102
{ACAD_REACTORS
330
C
102
}
330
C
100
AcDbDictionary
281
     1
  3
Normal
350
F
100
AcDbDictionaryWithDefault
340
F
  0
DICTIONARY
  5
47
102
{ACAD_REACTORS
330
C
102
}
330
C
100
AcDbDictionary
281
     1
  3
A0
350
48
  3
A1
350
49
  3
A2
350
4A
  3
A3
350
4B
  3
A4
350
4C
  3
A5
350
4D
  3
A6
350
4E
  3
A7
350
4F
  3
A8
350
50
  3
A9
350
51
  3
B1
350
52
  3
B2
350
53
  3
B3
350
54
  3
B4
350
55
  3
B5
350
56
  3
B6
350
57
  3
B7
350
58
  0
DICTIONARY
  5
2DC
102
{ACAD_REACTORS
330
C
102
}
330
C
100
AcDbDictionary
281
     1
  3
Metric50
350
2E0
  0
DICTIONARY
  5
59
102
{ACAD_REACTORS
330
C
102
}
330
C
100
AcDbDictionary
281
     1
  3
Standard
350
5A
  0
DICTIONARY
  5
2A
102
{ACAD_REACTORS
330
C
102
}
330
C
100
AcDbDictionary
281
     1
  3
2dWireframe
350
2F
  3
Basic
350
32
  3
Brighten
350
36
  3
ColorChange
350
3A
  3
Conceptual
350
34
  3
Dim
350
35
  3
EdgeColorOff
350
3D
  3
Facepattern
350
39
  3
Flat
350
2B
  3
FlatWithEdges
350
2C
  3
Gouraud
350
2D
  3
GouraudWithEdges
350
2E
  3
Hidden
350
31
  3
JitterOff
350
3B
  3
Linepattern
350
38
  3
OverhangOff
350
3C
  3
Realistic
350
33
  3
Shaded
350
42
  3
Shaded with edges
350
41
  3
Shades of Gray
350
3E
  3
Sketchy
350
3F
  3
Thicken
350
37
  3
Wireframe
350
30
  3
X-Ray
350
40
  0
XRECORD
  5
412
102
{ACAD_REACTORS
330
C
102
}
330
C
100
AcDbXrecord
280
     1
 90
        1
330
5A
  0
DICTIONARY
  5
2A0
102
{ACAD_REACTORS
330
C
102
}
330
C
100
AcDbDictionary
281
     1
  3
CANNOSCALE
350
2A1
  3
CMLEADERSTYLE
350
2DA
  3
CTABLESTYLE
350
2D9
  3
CVIEWDETAILSTYLE
350
3D4
  3
CVIEWSECTIONSTYLE
350
3D5
  3
LAYEREVAL
350
3D6
  3
LAYERNOTIFY
350
3D7
  0
XRECORD
  5
3D1
102
{ACAD_REACTORS
330
3D0
102
}
330
3D0
100
AcDbXrecord
280
     1
290
     1
  0
XRECORD
  5
3D3
102
{ACAD_REACTORS
330
3D2
102
}
330
3D2
100
AcDbXrecord
280
     1
290
     1
  0
SORTENTSTABLE
  5
32E
102
{ACAD_REACTORS
330
32D
102
}
330
32D
100
AcDbSortentsTable
330
1F
331
3C8
  5
3C8
331
3C9
  5
3C9
331
3B7
  5
3B7
331
3CA
  5
3CA
331
3B8
  5
3B8
331
3CB
  5
3CB
331
3DD
  5
3DF
331
3CC
  5
3CC
331
3DE
  5
3E1
331
3CD
  5
3CD
331
3CE
  5
3CE
331
3CF
  5
3CF
331
3BE
  5
3BE
331
3C0
  5
3C0
331
3BF
  5
3BF
331
3C1
  5
3C1
331
3C2
  5
3C2
331
3C3
  5
3C3
331
3E2
  5
3DD
331
3C4
  5
3C4
331
3C5
  5
3C5
331
3C6
  5
3C6
331
3C7
  5
3C7
  0
ACDBDETAILVIEWSTYLE
  5
2E1
102
{ACAD_REACTORS
330
2DB
102
}
330
2DB
100
AcDbModelDocViewStyle
 70
     0
  3
Metric50
290
     0
300
Metric50
 90
        0
100
AcDbDetailViewStyle
 70
     0
 71
     0
 90
        3
 71
     1
340
11
 62
   256
 40
5.0
340
0
 62
   256
 40
5.0
300

 40
0.0
280
     1
 71
     2
340
16
 90
       25
 62
   256
 71
     3
340
11
 62
   256
 40
5.0
 90
        0
 40
15.0
 90
        1
300
%<\AcVar ViewDetailId>% (%<\AcVar ViewScale \f "%sn">%)
 71
     4
340
16
 90
       25
 62
   256
340
16
 90
       25
 62
   256
280
     0
  0
LAYOUT
  5
1E
102
{ACAD_REACTORS
330
1A
102
}
330
1A
100
AcDbPlotSettings
  1

  2
none_device
  4

  6

 40
0.0
 41
0.0
 42
0.0
 43
0.0
 44
0.0
 45
0.0
 46
0.0
 47
0.0
 48
0.0
 49
0.0
140
0.0
141
0.0
142
1.0
143
1.0
 70
   688
 72
     0
 73
     0
 74
     5
  7

 75
    16
147
1.0
 76
     0
 77
     2
 78
   300
148
0.0
149
0.0
100
AcDbLayout
  1
Layout1
 70
     1
 71
     1
 10
0.0
 20
0.0
 11
12.0
 21
9.0
 12
0.0
 22
0.0
 32
0.0
 14
1.000000000000000E+20
 24
1.000000000000000E+20
 34
1.000000000000000E+20
 15
-1.000000000000000E+20
 25
-1.000000000000000E+20
 35
-1.000000000000000E+20
146
0.0
 13
0.0
 23
0.0
 33
0.0
 16
1.0
 26
0.0
 36
0.0
 17
0.0
 27
1.0
 37
0.0
 76
     0
330
1B
  0
LAYOUT
  5
26
102
{ACAD_REACTORS
330
1A
102
}
330
1A
100
AcDbPlotSettings
  1

  2
none_device
  4

  6

 40
0.0
 41
0.0
 42
0.0
 43
0.0
 44
0.0
 45
0.0
 46
0.0
 47
0.0
 48
0.0
 49
0.0
140
0.0
141
0.0
142
1.0
143
1.0
 70
   688
 72
     0
 73
     0
 74
     5
  7

 75
    16
147
1.0
 76
     0
 77
     2
 78
   300
148
0.0
149
0.0
100
AcDbLayout
  1
Layout2
 70
     1
 71
     2
 10
0.0
 20
0.0
 11
0.0
 21
0.0
 12
0.0
 22
0.0
 32
0.0
 14
0.0
 24
0.0
 34
0.0
 15
0.0
 25
0.0
 35
0.0
146
0.0
 13
0.0
 23
0.0
 33
0.0
 16
1.0
 26
0.0
 36
0.0
 17
0.0
 27
1.0
 37
0.0
 76
     0
330
23
  0
LAYOUT
  5
22
102
{ACAD_REACTORS
330
1A
102
}
330
1A
100
AcDbPlotSettings
  1

  2
none_device
  4
Letter_(8.50_x_11.00_Inches)
  6

 40
6.349999999999999
 41
6.349999999999999
 42
6.350005079999999
 43
6.350005079999999
 44
215.9
 45
279.4
 46
0.0
 47
0.0
 48
0.0
 49
0.0
140
0.0
141
0.0
142
1.0
143
1.0
 70
  1712
 72
     0
 73
     0
 74
     0
  7

 75
     0
147
1.0
 76
     0
 77
     2
 78
   300
148
0.0
149
0.0
100
AcDbLayout
  1
Model
 70
     1
 71
     0
 10
0.0
 20
0.0
 11
12.0
 21
9.0
 12
0.0
 22
0.0
 32
0.0
 14
526.1976662967062
 24
1539.164379903688
 34
0.0
 15
830.3535871572396
 25
1851.235406091034
 35
0.0
146
0.0
 13
0.0
 23
0.0
 33
0.0
 16
1.0
 26
0.0
 36
0.0
 17
0.0
 27
1.0
 37
0.0
 76
     0
330
1F
331
29
  0
MATERIAL
  5
45
102
{ACAD_REACTORS
330
43
102
}
330
43
100
AcDbMaterial
  1
ByBlock
  0
MATERIAL
  5
44
102
{ACAD_REACTORS
330
43
102
}
330
43
100
AcDbMaterial
  1
ByLayer
  0
MATERIAL
  5
46
102
{ACAD_REACTORS
330
43
102
}
330
43
100
AcDbMaterial
  1
Global
  0
MLEADERSTYLE
  5
5C
102
{ACAD_REACTORS
330
5B
102
}
330
5B
100
AcDbMLeaderStyle
179
     2
170
     2
171
     1
172
     0
 90
        2
 40
0.0
 41
0.0
173
     1
 91
-1056964608
340
14
 92
       -2
290
     1
 42
0.09
291
     1
 43
0.36
  3
Standard
 44
0.18
300

342
11
174
     1
178
     6
175
     1
176
     0
 93
-1056964608
 45
0.18
292
     0
297
     0
 46
0.18
 94
-1056964608
 47
1.0
 49
1.0
140
1.0
293
     1
141
0.0
294
     1
177
     0
142
1.0
295
     0
296
     0
143
0.125
271
     0
272
     9
273
     9
298
     0
1001
ACAD_MLEADERVER
1070
     2
  0
MLINESTYLE
  5
18
102
{ACAD_REACTORS
330
17
102
}
330
17
100
AcDbMlineStyle
  2
STANDARD
 70
     0
  3

 62
   256
 51
90.0
 52
90.0
 71
     2
 49
0.5
 62
   256
  6
BYLAYER
 49
-0.5
 62
   256
  6
BYLAYER
  0
ACDBPLACEHOLDER
  5
F
102
{ACAD_REACTORS
330
E
102
}
330
E
  0
SCALE
  5
48
102
{ACAD_REACTORS
330
47
102
}
330
47
100
AcDbScale
 70
     0
300
1:1
140
1.0
141
1.0
290
     1
  0
SCALE
  5
49
102
{ACAD_REACTORS
330
47
102
}
330
47
100
AcDbScale
 70
     0
300
1/128" = 1'-0"
140
0.0078125
141
12.0
290
     0
  0
SCALE
  5
4A
102
{ACAD_REACTORS
330
47
102
}
330
47
100
AcDbScale
 70
     0
300
1/64" = 1'-0"
140
0.015625
141
12.0
290
     0
  0
SCALE
  5
4B
102
{ACAD_REACTORS
330
47
102
}
330
47
100
AcDbScale
 70
     0
300
1/32" = 1'-0"
140
0.03125
141
12.0
290
     0
  0
SCALE
  5
4C
102
{ACAD_REACTORS
330
47
102
}
330
47
100
AcDbScale
 70
     0
300
1/16" = 1'-0"
140
0.0625
141
12.0
290
     0
  0
SCALE
  5
4D
102
{ACAD_REACTORS
330
47
102
}
330
47
100
AcDbScale
 70
     0
300
3/32" = 1'-0"
140
0.09375
141
12.0
290
     0
  0
SCALE
  5
4E
102
{ACAD_REACTORS
330
47
102
}
330
47
100
AcDbScale
 70
     0
300
1/8" = 1'-0"
140
0.125
141
12.0
290
     0
  0
SCALE
  5
4F
102
{ACAD_REACTORS
330
47
102
}
330
47
100
AcDbScale
 70
     0
300
3/16" = 1'-0"
140
0.1875
141
12.0
290
     0
  0
SCALE
  5
50
102
{ACAD_REACTORS
330
47
102
}
330
47
100
AcDbScale
 70
     0
300
1/4" = 1'-0"
140
0.25
141
12.0
290
     0
  0
SCALE
  5
51
102
{ACAD_REACTORS
330
47
102
}
330
47
100
AcDbScale
 70
     0
300
3/8" = 1'-0"
140
0.375
141
12.0
290
     0
  0
SCALE
  5
52
102
{ACAD_REACTORS
330
47
102
}
330
47
100
AcDbScale
 70
     0
300
1/2" = 1'-0"
140
0.5
141
12.0
290
     0
  0
SCALE
  5
53
102
{ACAD_REACTORS
330
47
102
}
330
47
100
AcDbScale
 70
     0
300
3/4" = 1'-0"
140
0.75
141
12.0
290
     0
  0
SCALE
  5
54
102
{ACAD_REACTORS
330
47
102
}
330
47
100
AcDbScale
 70
     0
300
1" = 1'-0"
140
1.0
141
12.0
290
     0
  0
SCALE
  5
55
102
{ACAD_REACTORS
330
47
102
}
330
47
100
AcDbScale
 70
     0
300
1-1/2" = 1'-0"
140
1.5
141
12.0
290
     0
  0
SCALE
  5
56
102
{ACAD_REACTORS
330
47
102
}
330
47
100
AcDbScale
 70
     0
300
3" = 1'-0"
140
3.0
141
12.0
290
     0
  0
SCALE
  5
57
102
{ACAD_REACTORS
330
47
102
}
330
47
100
AcDbScale
 70
     0
300
6" = 1'-0"
140
6.0
141
12.0
290
     0
  0
SCALE
  5
58
102
{ACAD_REACTORS
330
47
102
}
330
47
100
AcDbScale
 70
     0
300
1'-0" = 1'-0"
140
12.0
141
12.0
290
     0
  0
ACDBSECTIONVIEWSTYLE
  5
2E0
102
{ACAD_REACTORS
330
2DC
102
}
330
2DC
100
AcDbModelDocViewStyle
 70
     0
  3
Metric50
290
     0
300
Metric50
 90
        0
100
AcDbSectionViewStyle
 70
     0
 71
     0
 90
      102
 71
     1
340
11
 62
   256
 40
5.0
340
0
340
0
 62
   256
 40
5.0
300
I, O, Q, S, X, Z
 40
10.0
 90
        0
 40
2.5
 90
        0
 71
     2
340
16
 90
       25
 62
   256
340
16
 90
       50
 62
   256
 40
5.0
 40
2.5
 40
5.0
 71
     3
340
11
 62
   256
 40
5.0
 90
        0
 40
15.0
 90
        1
300
%<\AcVar ViewSectionStartId>%-%<\AcVar ViewSectionEndId>% (%<\AcVar ViewScale \f "%sn">%)
 71
     4
 62
   256
 62
   257
300
ANSI31
 40
1.0
 90
        0
290
     0
290
     0
 90
        6
 40
0.0
 40
1.570796326794896
 40
0.2617993877991494
 40
1.308996938995747
 40
-0.2617993877991494
 40
1.832595714594046
  0
TABLESTYLE
  5
5A
102
{ACAD_XDICTIONARY
360
2D3
102
}
102
{ACAD_REACTORS
330
59
102
}
330
59
100
AcDbTableStyle
280
     0
  3
Standard
 70
     0
 71
     0
 40
0.06
 41
0.06
280
     0
281
     0
  7
Standard
140
0.18
170
     2
 62
     0
 63
     7
283
     0
 90
        4
 91
        0
  1

274
    -2
284
     1
 64
     0
275
    -2
285
     1
 65
     0
276
    -2
286
     1
 66
     0
277
    -2
287
     1
 67
     0
278
    -2
288
     1
 68
     0
279
    -2
289
     1
 69
     0
  7
Standard
140
0.25
170
     5
 62
     0
 63
     7
283
     0
 90
        4
 91
        0
  1

274
    -2
284
     1
 64
     0
275
    -2
285
     1
 65
     0
276
    -2
286
     1
 66
     0
277
    -2
287
     1
 67
     0
278
    -2
288
     1
 68
     0
279
    -2
289
     1
 69
     0
  7
Standard
140
0.18
170
     5
 62
     0
 63
     7
283
     0
 90
        4
 91
        0
  1

274
    -2
284
     1
 64
     0
275
    -2
285
     1
 65
     0
276
    -2
286
     1
 66
     0
277
    -2
287
     1
 67
     0
278
    -2
288
     1
 68
     0
279
    -2
289
     1
 69
     0
  0
VISUALSTYLE
  5
2F
102
{ACAD_REACTORS
330
2A
102
}
330
2A
100
AcDbVisualStyle
  2

 70
     4
177
     3
291
     0
 70
    58
 90
        0
176
     1
 90
        2
176
     1
 90
        0
176
     1
 90
        0
176
     1
 40
0.6
176
     1
 40
30.0
176
     1
 62
     7
420
 16777215
176
     1
 90
        1
176
     1
 90
        4
176
     1
 62
     7
176
     1
 62
   257
176
     1
 90
        1
176
     1
 90
        1
176
     1
 40
1.0
176
     1
 90
        0
176
     1
 62
   257
176
     1
 40
1.0
176
     1
 90
        1
176
     1
 90
        6
176
     1
 90
        2
176
     1
 62
     7
176
     1
 90
        5
176
     1
 90
        0
176
     1
 90
        0
176
     1
290
     0
176
     1
 90
        1
176
     1
 40
0.0
176
     1
 90
        0
176
     1
290
     1
176
     1
290
     1
176
     1
290
     0
176
     1
290
     0
176
     1
290
     0
176
     1
290
     0
176
     1
290
     0
176
     1
290
     0
176
     1
290
     0
176
     1
 90
       50
176
     1
 40
0.0
176
     1
 40
1.0
176
     1
 90
        0
176
     1
 62
    18
420
        0
176
     1
 90
       50
176
     1
 90
        3
176
     1
 62
     5
420
      255
176
     1
290
     0
176
     1
 90
       50
176
     1
 90
       50
176
     1
 90
       50
176
     1
290
     0
176
     1
 90
       50
176
     1
 62
   256
176
     0
 40
1.0
176
     0
 90
        2
176
     1
  1
strokes_ogs.tif
176
     1
290
     0
176
     1
 40
1.0
176
     1
 40
1.0
176
     1
  0
VISUALSTYLE
  5
32
102
{ACAD_REACTORS
330
2A
102
}
330
2A
100
AcDbVisualStyle
  2

 70
     7
177
     3
291
     1
 70
    58
 90
        1
176
     1
 90
        0
176
     1
 90
        1
176
     1
 90
        0
176
     1
 40
0.6
176
     1
 40
30.0
176
     1
 62
     7
420
 16777215
176
     1
 90
        0
176
     1
 90
        4
176
     1
 62
     7
176
     1
 62
   257
176
     1
 90
        1
176
     1
 90
        1
176
     1
 40
1.0
176
     1
 90
        8
176
     1
 62
     7
176
     1
 40
1.0
176
     1
 90
        1
176
     1
 90
        6
176
     1
 90
        2
176
     1
 62
     7
176
     1
 90
        5
176
     1
 90
        0
176
     1
 90
        0
176
     1
290
     0
176
     1
 90
        1
176
     1
 40
0.0
176
     1
 90
        0
176
     1
290
     0
176
     1
290
     1
176
     1
290
     1
176
     1
290
     0
176
     1
290
     0
176
     1
290
     0
176
     1
290
     0
176
     1
290
     0
176
     1
290
     0
176
     1
 90
       50
176
     1
 40
0.0
176
     1
 40
1.0
176
     1
 90
        0
176
     1
 62
    18
420
        0
176
     1
 90
       50
176
     1
 90
        3
176
     1
 62
     5
420
      255
176
     1
290
     0
176
     1
 90
       50
176
     1
 90
       50
176
     1
 90
       50
176
     1
290
     0
176
     1
 90
       50
176
     1
 62
   256
176
     0
 40
1.0
176
     0
 90
        2
176
     1
  1
strokes_ogs.tif
176
     1
290
     0
176
     1
 40
1.0
176
     1
 40
1.0
176
     1
  0
VISUALSTYLE
  5
36
102
{ACAD_REACTORS
330
2A
102
}
330
2A
100
AcDbVisualStyle
  2

 70
    12
177
     3
291
     1
 70
    58
 90
        2
176
     1
 90
        2
176
     1
 90
        0
176
     1
 90
        0
176
     1
 40
0.6
176
     1
 40
30.0
176
     1
 62
     7
420
 16777215
176
     1
 90
        1
176
     1
 90
        4
176
     1
 62
     7
176
     1
 62
   257
176
     1
 90
        1
176
     1
 90
        1
176
     1
 40
1.0
176
     1
 90
        8
176
     1
 62
     7
176
     1
 40
1.0
176
     1
 90
        1
176
     1
 90
        6
176
     1
 90
        2
176
     1
 62
     7
176
     1
 90
        5
176
     1
 90
        0
176
     1
 90
        0
176
     1
290
     0
176
     1
 90
        1
176
     1
 40
50.0
176
     1
 90
        0
176
     1
290
     0
176
     1
290
     1
176
     1
290
     1
176
     1
290
     0
176
     1
290
     0
176
     1
290
     0
176
     1
290
     0
176
     1
290
     0
176
     1
290
     0
176
     1
 90
       50
176
     1
 40
0.0
176
     1
 40
1.0
176
     1
 90
        0
176
     1
 62
    18
420
        0
176
     1
 90
       50
176
     1
 90
        3
176
     1
 62
     5
420
      255
176
     1
290
     0
176
     1
 90
       50
176
     1
 90
       50
176
     1
 90
       50
176
     1
290
     0
176
     1
 90
       50
176
     1
 62
   256
176
     0
 40
1.0
176
     0
 90
        2
176
     1
  1
strokes_ogs.tif
176
     1
290
     0
176
     1
 40
1.0
176
     1
 40
1.0
176
     1
  0
VISUALSTYLE
  5
3A
102
{ACAD_REACTORS
330
2A
102
}
330
2A
100
AcDbVisualStyle
  2

 70
    16
177
     3
291
     1
 70
    58
 90
        2
176
     1
 90
        2
176
     1
 90
        3
176
     1
 90
        0
176
     1
 40
0.6
176
     1
 40
30.0
176
     1
 62
     8
420
  8421504
176
     1
 90
        1
176
     1
 90
        4
176
     1
 62
     7
176
     1
 62
   257
176
     1
 90
        1
176
     1
 90
        1
176
     1
 40
1.0
176
     1
 90
        8
176
     1
 62
     8
420
  8421504
176
     1
 40
1.0
176
     1
 90
        1
176
     1
 90
        6
176
     1
 90
        2
176
     1
 62
     7
176
     1
 90
        5
176
     1
 90
        0
176
     1
 90
        0
176
     1
290
     0
176
     1
 90
        1
176
     1
 40
0.0
176
     1
 90
        0
176
     1
290
     0
176
     1
290
     1
176
     1
290
     1
176
     1
290
     0
176
     1
290
     0
176
     1
290
     0
176
     1
290
     0
176
     1
290
     0
176
     1
290
     0
176
     1
 90
       50
176
     1
 40
0.0
176
     1
 40
1.0
176
     1
 90
        0
176
     1
 62
    18
420
        0
176
     1
 90
       50
176
     1
 90
        3
176
     1
 62
     5
420
      255
176
     1
290
     0
176
     1
 90
       50
176
     1
 90
       50
176
     1
 90
       50
176
     1
290
     0
176
     1
 90
       50
176
     1
 62
   256
176
     0
 40
1.0
176
     0
 90
        2
176
     1
  1
strokes_ogs.tif
176
     1
290
     0
176
     1
 40
1.0
176
     1
 40
1.0
176
     1
  0
VISUALSTYLE
  5
34
102
{ACAD_REACTORS
330
2A
102
}
330
2A
100
AcDbVisualStyle
  2

 70
     9
177
     3
291
     0
 70
    58
 90
        3
176
     1
 90
        2
176
     1
 90
        0
176
     1
 90
        0
176
     1
 40
0.6
176
     1
 40
30.0
176
     1
 62
     7
420
 16777215
176
     1
 90
        2
176
     1
 90
        2
176
     1
 62
     7
176
     1
 62
   257
176
     1
 90
        1
176
     1
 90
        1
176
     1
 40
179.0
176
     1
 90
        8
176
     1
 62
     7
176
     1
 40
1.0
176
     1
 90
        1
176
     1
 90
        6
176
     1
 90
        2
176
     1
 62
     7
176
     1
 90
        3
176
     1
 90
        0
176
     1
 90
        0
176
     1
290
     0
176
     1
 90
        1
176
     1
 40
0.0
176
     1
 90
        0
176
     1
290
     0
176
     1
290
     1
176
     1
290
     1
176
     1
290
     0
176
     1
290
     0
176
     1
290
     0
176
     1
290
     0
176
     1
290
     0
176
     1
290
     0
176
     1
 90
       50
176
     1
 40
0.0
176
     1
 40
1.0
176
     1
 90
        0
176
     1
 62
    18
420
        0
176
     1
 90
       50
176
     1
 90
        3
176
     1
 62
     5
420
      255
176
     1
290
     0
176
     1
 90
       50
176
     1
 90
       50
176
     1
 90
       50
176
     1
290
     0
176
     1
 90
       50
176
     1
 62
   256
176
     0
 40
1.0
176
     0
 90
        2
176
     1
  1
strokes_ogs.tif
176
     1
290
     0
176
     1
 40
1.0
176
     1
 40
1.0
176
     1
  0
VISUALSTYLE
  5
35
102
{ACAD_REACTORS
330
2A
102
}
330
2A
100
AcDbVisualStyle
  2

 70
    11
177
     3
291
     1
 70
    58
 90
        2
176
     1
 90
        2
176
     1
 90
        0
176
     1
 90
        0
176
     1
 40
0.6
176
     1
 40
30.0
176
     1
 62
     7
420
 16777215
176
     1
 90
        1
176
     1
 90
        4
176
     1
 62
     7
176
     1
 62
   257
176
     1
 90
        1
176
     1
 90
        1
176
     1
 40
1.0
176
     1
 90
        8
176
     1
 62
     7
176
     1
 40
1.0
176
     1
 90
        1
176
     1
 90
        6
176
     1
 90
        2
176
     1
 62
     7
176
     1
 90
        5
176
     1
 90
        0
176
     1
 90
        0
176
     1
290
     0
176
     1
 90
        1
176
     1
 40
-50.0
176
     1
 90
        0
176
     1
290
     0
176
     1
290
     1
176
     1
290
     1
176
     1
290
     0
176
     1
290
     0
176
     1
290
     0
176
     1
290
     0
176
     1
290
     0
176
     1
290
     0
176
     1
 90
       50
176
     1
 40
0.0
176
     1
 40
1.0
176
     1
 90
        0
176
     1
 62
    18
420
        0
176
     1
 90
       50
176
     1
 90
        3
176
     1
 62
     5
420
      255
176
     1
290
     0
176
     1
 90
       50
176
     1
 90
       50
176
     1
 90
       50
176
     1
290
     0
176
     1
 90
       50
176
     1
 62
   256
176
     0
 40
1.0
176
     0
 90
        2
176
     1
  1
strokes_ogs.tif
176
     1
290
     0
176
     1
 40
1.0
176
     1
 40
1.0
176
     1
  0
VISUALSTYLE
  5
3D
102
{ACAD_REACTORS
330
2A
102
}
330
2A
100
AcDbVisualStyle
  2

 70
    22
177
     3
291
     1
 70
    58
 90
        2
176
     0
 90
        2
176
     0
 90
        0
176
     0
 90
        0
176
     0
 40
0.6
176
     0
 40
30.0
176
     0
 62
     7
420
 16777215
176
     0
 90
        1
176
     0
 90
        4
176
     0
 62
     7
176
     0
 62
   257
176
     0
 90
        1
176
     0
 90
        1
176
     0
 40
1.0
176
     0
 90
        8
176
     2
 62
     7
176
     0
 40
1.0
176
     0
 90
        1
176
     0
 90
        6
176
     0
 90
        2
176
     0
 62
     7
176
     0
 90
        5
176
     0
 90
        0
176
     0
 90
        0
176
     0
290
     0
176
     0
 90
        1
176
     0
 40
0.0
176
     0
 90
        0
176
     0
290
     0
176
     0
290
     1
176
     0
290
     1
176
     0
290
     0
176
     0
290
     0
176
     0
290
     0
176
     0
290
     0
176
     0
290
     0
176
     0
290
     0
176
     0
 90
       50
176
     0
 40
0.0
176
     0
 40
1.0
176
     0
 90
        0
176
     0
 62
    18
420
        0
176
     0
 90
       50
176
     0
 90
        3
176
     0
 62
     5
420
      255
176
     0
290
     0
176
     0
 90
       50
176
     0
 90
       50
176
     0
 90
       50
176
     0
290
     0
176
     0
 90
       50
176
     0
 62
   256
176
     0
 40
1.0
176
     0
 90
        2
176
     0
  1
strokes_ogs.tif
176
     0
290
     0
176
     0
 40
1.0
176
     0
 40
1.0
176
     0
  0
VISUALSTYLE
  5
39
102
{ACAD_REACTORS
330
2A
102
}
330
2A
100
AcDbVisualStyle
  2

 70
    15
177
     3
291
     1
 70
    58
 90
        2
176
     1
 90
        2
176
     1
 90
        0
176
     1
 90
        0
176
     1
 40
0.6
176
     1
 40
30.0
176
     1
 62
     7
420
 16777215
176
     1
 90
        1
176
     1
 90
        4
176
     1
 62
     7
176
     1
 62
   257
176
     1
 90
        1
176
     1
 90
        1
176
     1
 40
1.0
176
     1
 90
        8
176
     1
 62
     7
176
     1
 40
1.0
176
     1
 90
        1
176
     1
 90
        6
176
     1
 90
        2
176
     1
 62
     7
176
     1
 90
        5
176
     1
 90
        0
176
     1
 90
        0
176
     1
290
     0
176
     1
 90
        1
176
     1
 40
0.0
176
     1
 90
        0
176
     1
290
     0
176
     1
290
     1
176
     1
290
     1
176
     1
290
     0
176
     1
290
     0
176
     1
290
     0
176
     1
290
     0
176
     1
290
     0
176
     1
290
     0
176
     1
 90
       50
176
     1
 40
0.0
176
     1
 40
1.0
176
     1
 90
        0
176
     1
 62
    18
420
        0
176
     1
 90
       50
176
     1
 90
        3
176
     1
 62
     5
420
      255
176
     1
290
     0
176
     1
 90
       50
176
     1
 90
       50
176
     1
 90
       50
176
     1
290
     0
176
     1
 90
       50
176
     1
 62
   256
176
     0
 40
1.0
176
     0
 90
        2
176
     1
  1
strokes_ogs.tif
176
     1
290
     0
176
     1
 40
1.0
176
     1
 40
1.0
176
     1
  0
VISUALSTYLE
  5
2B
102
{ACAD_REACTORS
330
2A
102
}
330
2A
100
AcDbVisualStyle
  2

 70
     0
177
     3
291
     1
 70
    58
 90
        2
176
     1
 90
        1
176
     1
 90
        1
176
     1
 90
        2
176
     1
 40
0.6
176
     1
 40
30.0
176
     1
 62
     7
420
 16777215
176
     1
 90
        0
176
     1
 90
        0
176
     1
 62
     7
176
     1
 62
   257
176
     1
 90
        1
176
     1
 90
        1
176
     1
 40
1.0
176
     1
 90
        8
176
     1
 62
     7
176
     1
 40
1.0
176
     1
 90
        1
176
     1
 90
        6
176
     1
 90
        2
176
     1
 62
     7
176
     1
 90
        5
176
     1
 90
        0
176
     1
 90
        0
176
     1
290
     0
176
     1
 90
       13
176
     1
 40
0.0
176
     1
 90
        0
176
     1
290
     0
176
     1
290
     1
176
     1
290
     1
176
     1
290
     0
176
     1
290
     0
176
     1
290
     0
176
     1
290
     0
176
     1
290
     0
176
     1
290
     0
176
     1
 90
       50
176
     1
 40
0.0
176
     1
 40
1.0
176
     1
 90
        0
176
     1
 62
    18
420
        0
176
     1
 90
       50
176
     1
 90
        3
176
     1
 62
     5
420
      255
176
     1
290
     0
176
     1
 90
       50
176
     1
 90
       50
176
     1
 90
       50
176
     1
290
     0
176
     1
 90
       50
176
     1
 62
   256
176
     0
 40
1.0
176
     0
 90
        2
176
     1
  1
strokes_ogs.tif
176
     1
290
     0
176
     1
 40
1.0
176
     1
 40
1.0
176
     1
  0
VISUALSTYLE
  5
2C
102
{ACAD_REACTORS
330
2A
102
}
330
2A
100
AcDbVisualStyle
  2

 70
     1
177
     3
291
     1
 70
    58
 90
        2
176
     1
 90
        1
176
     1
 90
        1
176
     1
 90
        2
176
     1
 40
0.6
176
     1
 40
30.0
176
     1
 62
     7
420
 16777215
176
     1
 90
        1
176
     1
 90
        0
176
     1
 62
     7
176
     1
 62
   257
176
     1
 90
        1
176
     1
 90
        1
176
     1
 40
1.0
176
     1
 90
        0
176
     1
 62
   257
176
     1
 40
1.0
176
     1
 90
        1
176
     1
 90
        6
176
     1
 90
        2
176
     1
 62
     7
176
     1
 90
        5
176
     1
 90
        0
176
     1
 90
        0
176
     1
290
     0
176
     1
 90
       13
176
     1
 40
0.0
176
     1
 90
        0
176
     1
290
     0
176
     1
290
     1
176
     1
290
     1
176
     1
290
     0
176
     1
290
     0
176
     1
290
     0
176
     1
290
     0
176
     1
290
     0
176
     1
290
     0
176
     1
 90
       50
176
     1
 40
0.0
176
     1
 40
1.0
176
     1
 90
        0
176
     1
 62
    18
420
        0
176
     1
 90
       50
176
     1
 90
        3
176
     1
 62
     5
420
      255
176
     1
290
     0
176
     1
 90
       50
176
     1
 90
       50
176
     1
 90
       50
176
     1
290
     0
176
     1
 90
       50
176
     1
 62
   256
176
     0
 40
1.0
176
     0
 90
        2
176
     1
  1
strokes_ogs.tif
176
     1
290
     0
176
     1
 40
1.0
176
     1
 40
1.0
176
     1
  0
VISUALSTYLE
  5
2D
102
{ACAD_REACTORS
330
2A
102
}
330
2A
100
AcDbVisualStyle
  2

 70
     2
177
     3
291
     1
 70
    58
 90
        2
176
     1
 90
        2
176
     1
 90
        1
176
     1
 90
        2
176
     1
 40
0.6
176
     1
 40
30.0
176
     1
 62
     7
420
 16777215
176
     1
 90
        0
176
     1
 90
        0
176
     1
 62
     7
176
     1
 62
   257
176
     1
 90
        1
176
     1
 90
        1
176
     1
 40
1.0
176
     1
 90
        0
176
     1
 62
     7
176
     1
 40
1.0
176
     1
 90
        1
176
     1
 90
        6
176
     1
 90
        2
176
     1
 62
     7
176
     1
 90
        5
176
     1
 90
        0
176
     1
 90
        0
176
     1
290
     0
176
     1
 90
       13
176
     1
 40
0.0
176
     1
 90
        0
176
     1
290
     0
176
     1
290
     1
176
     1
290
     1
176
     1
290
     0
176
     1
290
     0
176
     1
290
     0
176
     1
290
     0
176
     1
290
     0
176
     1
290
     0
176
     1
 90
       50
176
     1
 40
0.0
176
     1
 40
1.0
176
     1
 90
        0
176
     1
 62
    18
420
        0
176
     1
 90
       50
176
     1
 90
        3
176
     1
 62
     5
420
      255
176
     1
290
     0
176
     1
 90
       50
176
     1
 90
       50
176
     1
 90
       50
176
     1
290
     0
176
     1
 90
       50
176
     1
 62
   256
176
     0
 40
1.0
176
     0
 90
        2
176
     1
  1
strokes_ogs.tif
176
     1
290
     0
176
     1
 40
1.0
176
     1
 40
1.0
176
     1
  0
VISUALSTYLE
  5
2E
102
{ACAD_REACTORS
330
2A
102
}
330
2A
100
AcDbVisualStyle
  2

 70
     3
177
     3
291
     1
 70
    58
 90
        2
176
     1
 90
        2
176
     1
 90
        1
176
     1
 90
        2
176
     1
 40
0.6
176
     1
 40
30.0
176
     1
 62
     7
420
 16777215
176
     1
 90
        1
176
     1
 90
        0
176
     1
 62
     7
176
     1
 62
   257
176
     1
 90
        1
176
     1
 90
        1
176
     1
 40
1.0
176
     1
 90
        0
176
     1
 62
   257
176
     1
 40
1.0
176
     1
 90
        1
176
     1
 90
        6
176
     1
 90
        2
176
     1
 62
     7
176
     1
 90
        5
176
     1
 90
        0
176
     1
 90
        0
176
     1
290
     0
176
     1
 90
       13
176
     1
 40
0.0
176
     1
 90
        0
176
     1
290
     0
176
     1
290
     1
176
     1
290
     1
176
     1
290
     0
176
     1
290
     0
176
     1
290
     0
176
     1
290
     0
176
     1
290
     0
176
     1
290
     0
176
     1
 90
       50
176
     1
 40
0.0
176
     1
 40
1.0
176
     1
 90
        0
176
     1
 62
    18
420
        0
176
     1
 90
       50
176
     1
 90
        3
176
     1
 62
     5
420
      255
176
     1
290
     0
176
     1
 90
       50
176
     1
 90
       50
176
     1
 90
       50
176
     1
290
     0
176
     1
 90
       50
176
     1
 62
   256
176
     0
 40
1.0
176
     0
 90
        2
176
     1
  1
strokes_ogs.tif
176
     1
290
     0
176
     1
 40
1.0
176
     1
 40
1.0
176
     1
  0
VISUALSTYLE
  5
31
102
{ACAD_REACTORS
330
2A
102
}
330
2A
100
AcDbVisualStyle
  2

 70
     6
177
     3
291
     0
 70
    58
 90
        1
176
     1
 90
        2
176
     1
 90
        2
176
     1
 90
        0
176
     1
 40
0.6
176
     1
 40
30.0
176
     1
 62
     7
420
 16777215
176
     1
 90
        2
176
     1
 90
        2
176
     1
 62
     7
176
     1
 62
   257
176
     1
 90
        2
176
     1
 90
        1
176
     1
 40
40.0
176
     1
 90
        0
176
     1
 62
   257
176
     1
 40
1.0
176
     1
 90
        1
176
     1
 90
        6
176
     1
 90
        2
176
     1
 62
     7
176
     1
 90
        3
176
     1
 90
        0
176
     1
 90
        0
176
     1
290
     0
176
     1
 90
        1
176
     1
 40
0.0
176
     1
 90
        0
176
     1
290
     0
176
     1
290
     1
176
     1
290
     1
176
     1
290
     0
176
     1
290
     0
176
     1
290
     0
176
     1
290
     0
176
     1
290
     0
176
     1
290
     0
176
     1
 90
       50
176
     1
 40
0.0
176
     1
 40
1.0
176
     1
 90
        0
176
     1
 62
    18
420
        0
176
     1
 90
       50
176
     1
 90
        3
176
     1
 62
     5
420
      255
176
     1
290
     0
176
     1
 90
       50
176
     1
 90
       50
176
     1
 90
       50
176
     1
290
     0
176
     1
 90
       50
176
     1
 62
   256
176
     0
 40
1.0
176
     0
 90
        2
176
     1
  1
strokes_ogs.tif
176
     1
290
     0
176
     1
 40
1.0
176
     1
 40
1.0
176
     1
  0
VISUALSTYLE
  5
3B
102
{ACAD_REACTORS
330
2A
102
}
330
2A
100
AcDbVisualStyle
  2

 70
    20
177
     3
291
     1
 70
    58
 90
        2
176
     0
 90
        2
176
     0
 90
        0
176
     0
 90
        0
176
     0
 40
0.6
176
     0
 40
30.0
176
     0
 62
     7
420
 16777215
176
     0
 90
        1
176
     0
 90
        4
176
     0
 62
     7
176
     0
 62
   257
176
     0
 90
        1
176
     0
 90
        1
176
     0
 40
1.0
176
     0
 90
       10
176
     2
 62
     7
176
     0
 40
1.0
176
     0
 90
        1
176
     0
 90
        6
176
     0
 90
        2
176
     0
 62
     7
176
     0
 90
        5
176
     0
 90
        0
176
     0
 90
        0
176
     0
290
     0
176
     0
 90
        1
176
     0
 40
0.0
176
     0
 90
        0
176
     0
290
     0
176
     0
290
     1
176
     0
290
     1
176
     0
290
     0
176
     0
290
     0
176
     0
290
     0
176
     0
290
     0
176
     0
290
     0
176
     0
290
     0
176
     0
 90
       50
176
     0
 40
0.0
176
     0
 40
1.0
176
     0
 90
        0
176
     0
 62
    18
420
        0
176
     0
 90
       50
176
     0
 90
        3
176
     0
 62
     5
420
      255
176
     0
290
     0
176
     0
 90
       50
176
     0
 90
       50
176
     0
 90
       50
176
     0
290
     0
176
     0
 90
       50
176
     0
 62
   256
176
     0
 40
1.0
176
     0
 90
        2
176
     0
  1
strokes_ogs.tif
176
     0
290
     0
176
     0
 40
1.0
176
     0
 40
1.0
176
     0
  0
VISUALSTYLE
  5
38
102
{ACAD_REACTORS
330
2A
102
}
330
2A
100
AcDbVisualStyle
  2

 70
    14
177
     3
291
     1
 70
    58
 90
        2
176
     1
 90
        2
176
     1
 90
        0
176
     1
 90
        0
176
     1
 40
0.6
176
     1
 40
30.0
176
     1
 62
     7
420
 16777215
176
     1
 90
        1
176
     1
 90
        4
176
     1
 62
     7
176
     1
 62
   257
176
     1
 90
        7
176
     1
 90
        7
176
     1
 40
1.0
176
     1
 90
        8
176
     1
 62
     7
176
     1
 40
1.0
176
     1
 90
        1
176
     1
 90
        6
176
     1
 90
        2
176
     1
 62
     7
176
     1
 90
        5
176
     1
 90
        0
176
     1
 90
        0
176
     1
290
     0
176
     1
 90
        1
176
     1
 40
0.0
176
     1
 90
        0
176
     1
290
     0
176
     1
290
     1
176
     1
290
     1
176
     1
290
     0
176
     1
290
     0
176
     1
290
     0
176
     1
290
     0
176
     1
290
     0
176
     1
290
     0
176
     1
 90
       50
176
     1
 40
0.0
176
     1
 40
1.0
176
     1
 90
        0
176
     1
 62
    18
420
        0
176
     1
 90
       50
176
     1
 90
        3
176
     1
 62
     5
420
      255
176
     1
290
     0
176
     1
 90
       50
176
     1
 90
       50
176
     1
 90
       50
176
     1
290
     0
176
     1
 90
       50
176
     1
 62
   256
176
     0
 40
1.0
176
     0
 90
        2
176
     1
  1
strokes_ogs.tif
176
     1
290
     0
176
     1
 40
1.0
176
     1
 40
1.0
176
     1
  0
VISUALSTYLE
  5
3C
102
{ACAD_REACTORS
330
2A
102
}
330
2A
100
AcDbVisualStyle
  2

 70
    21
177
     3
291
     1
 70
    58
 90
        2
176
     0
 90
        2
176
     0
 90
        0
176
     0
 90
        0
176
     0
 40
0.6
176
     0
 40
30.0
176
     0
 62
     7
420
 16777215
176
     0
 90
        1
176
     0
 90
        4
176
     0
 62
     7
176
     0
 62
   257
176
     0
 90
        1
176
     0
 90
        1
176
     0
 40
1.0
176
     0
 90
        9
176
     2
 62
     7
176
     0
 40
1.0
176
     0
 90
        1
176
     0
 90
        6
176
     0
 90
        2
176
     0
 62
     7
176
     0
 90
        5
176
     0
 90
        0
176
     0
 90
        0
176
     0
290
     0
176
     0
 90
        1
176
     0
 40
0.0
176
     0
 90
        0
176
     0
290
     0
176
     0
290
     1
176
     0
290
     1
176
     0
290
     0
176
     0
290
     0
176
     0
290
     0
176
     0
290
     0
176
     0
290
     0
176
     0
290
     0
176
     0
 90
       50
176
     0
 40
0.0
176
     0
 40
1.0
176
     0
 90
        0
176
     0
 62
    18
420
        0
176
     0
 90
       50
176
     0
 90
        3
176
     0
 62
     5
420
      255
176
     0
290
     0
176
     0
 90
       50
176
     0
 90
       50
176
     0
 90
       50
176
     0
290
     0
176
     0
 90
       50
176
     0
 62
   256
176
     0
 40
1.0
176
     0
 90
        2
176
     0
  1
strokes_ogs.tif
176
     0
290
     0
176
     0
 40
1.0
176
     0
 40
1.0
176
     0
  0
VISUALSTYLE
  5
33
102
{ACAD_REACTORS
330
2A
102
}
330
2A
100
AcDbVisualStyle
  2

 70
     8
177
     3
291
     0
 70
    58
 90
        2
176
     1
 90
        3
176
     1
 90
        0
176
     1
 90
        2
176
     1
 40
0.6
176
     1
 40
30.0
176
     1
 62
     7
420
 16777215
176
     1
 90
        0
176
     1
 90
        0
176
     1
 62
     7
176
     1
 62
   257
176
     1
 90
        1
176
     1
 90
        1
176
     1
 40
1.0
176
     1
 90
        8
176
     1
 62
   257
176
     1
 40
1.0
176
     1
 90
        1
176
     1
 90
        6
176
     1
 90
        2
176
     1
 62
     7
176
     1
 90
        3
176
     1
 90
        0
176
     1
 90
        0
176
     1
290
     0
176
     1
 90
       13
176
     1
 40
0.0
176
     1
 90
        0
176
     1
290
     0
176
     1
290
     1
176
     1
290
     1
176
     1
290
     0
176
     1
290
     0
176
     1
290
     0
176
     1
290
     0
176
     1
290
     0
176
     1
290
     0
176
     1
 90
       50
176
     1
 40
0.0
176
     1
 40
1.0
176
     1
 90
        0
176
     1
 62
    18
420
        0
176
     1
 90
       50
176
     1
 90
        3
176
     1
 62
     5
420
      255
176
     1
290
     0
176
     1
 90
       50
176
     1
 90
       50
176
     1
 90
       50
176
     1
290
     0
176
     1
 90
       50
176
     1
 62
   256
176
     0
 40
1.0
176
     0
 90
        2
176
     1
  1
strokes_ogs.tif
176
     1
290
     0
176
     1
 40
1.0
176
     1
 40
1.0
176
     1
  0
VISUALSTYLE
  5
42
102
{ACAD_REACTORS
330
2A
102
}
330
2A
100
AcDbVisualStyle
  2

 70
    27
177
     3
291
     0
 70
    58
 90
        2
176
     1
 90
        2
176
     1
 90
        1
176
     1
 90
        2
176
     1
 40
0.6
176
     1
 40
30.0
176
     1
 62
     7
420
 16777215
176
     1
 90
        0
176
     1
 90
        4
176
     1
 62
     7
176
     1
 62
   257
176
     1
 90
        1
176
     1
 90
        1
176
     1
 40
1.0
176
     1
 90
        8
176
     1
 62
   257
176
     1
 40
1.0
176
     1
 90
        1
176
     1
 90
        6
176
     1
 90
        2
176
     1
 62
     8
420
  7895160
176
     1
 90
        3
176
     1
 90
        0
176
     1
 90
        0
176
     1
290
     0
176
     1
 90
        5
176
     1
 40
0.0
176
     1
 90
        0
176
     1
290
     0
176
     1
290
     1
176
     1
290
     1
176
     1
290
     0
176
     1
290
     0
176
     1
290
     0
176
     1
290
     0
176
     1
290
     0
176
     1
290
     0
176
     1
 90
       50
176
     1
 40
0.0
176
     1
 40
1.0
176
     1
 90
        0
176
     1
 62
    18
420
        0
176
     1
 90
       50
176
     1
 90
        3
176
     1
 62
     5
420
      255
176
     1
290
     0
176
     1
 90
       50
176
     1
 90
       50
176
     1
 90
       50
176
     1
290
     0
176
     1
 90
       50
176
     1
 62
   256
176
     0
 40
1.0
176
     0
 90
        2
176
     1
  1
strokes_ogs.tif
176
     1
290
     0
176
     1
 40
1.0
176
     1
 40
1.0
176
     1
  0
VISUALSTYLE
  5
41
102
{ACAD_REACTORS
330
2A
102
}
330
2A
100
AcDbVisualStyle
  2

 70
    26
177
     3
291
     0
 70
    58
 90
        2
176
     1
 90
        2
176
     1
 90
        1
176
     1
 90
        2
176
     1
 40
0.6
176
     1
 40
30.0
176
     1
 62
     7
420
 16777215
176
     1
 90
        1
176
     1
 90
       10
176
     1
 62
     7
176
     1
 62
   257
176
     1
 90
        2
176
     1
 90
        1
176
     1
 40
1.0
176
     1
 90
        8
176
     1
 62
   257
176
     1
 40
1.0
176
     1
 90
        1
176
     1
 90
        6
176
     1
 90
        2
176
     1
 62
     7
176
     1
 90
        3
176
     1
 90
        0
176
     1
 90
        0
176
     1
290
     0
176
     1
 90
        5
176
     1
 40
0.0
176
     1
 90
        0
176
     1
290
     0
176
     1
290
     1
176
     1
290
     1
176
     1
290
     0
176
     1
290
     0
176
     1
290
     0
176
     1
290
     0
176
     1
290
     0
176
     1
290
     0
176
     1
 90
       50
176
     1
 40
0.0
176
     1
 40
1.0
176
     1
 90
        0
176
     1
 62
    18
420
        0
176
     1
 90
       50
176
     1
 90
        3
176
     1
 62
     5
420
      255
176
     1
290
     0
176
     1
 90
       50
176
     1
 90
       50
176
     1
 90
       50
176
     1
290
     0
176
     1
 90
       50
176
     1
 62
   256
176
     0
 40
1.0
176
     0
 90
        2
176
     1
  1
strokes_ogs.tif
176
     1
290
     0
176
     1
 40
1.0
176
     1
 40
1.0
176
     1
  0
VISUALSTYLE
  5
3E
102
{ACAD_REACTORS
330
2A
102
}
330
2A
100
AcDbVisualStyle
  2

 70
    23
177
     3
291
     0
 70
    58
 90
        2
176
     1
 90
        2
176
     1
 90
        3
176
     1
 90
        0
176
     1
 40
0.6
176
     1
 40
30.0
176
     1
 62
     7
420
 16777215
176
     1
 90
        2
176
     1
 90
        2
176
     1
 62
     7
176
     1
 62
     7
176
     1
 90
        1
176
     1
 90
        1
176
     1
 40
40.0
176
     1
 90
        8
176
     1
 62
     7
176
     1
 40
1.0
176
     1
 90
        1
176
     1
 90
        6
176
     1
 90
        2
176
     1
 62
     7
176
     1
 90
        3
176
     1
 90
        0
176
     1
 90
        0
176
     1
290
     0
176
     1
 90
        1
176
     1
 40
0.0
176
     1
 90
        0
176
     1
290
     0
176
     1
290
     1
176
     1
290
     1
176
     1
290
     0
176
     1
290
     0
176
     1
290
     0
176
     1
290
     0
176
     1
290
     0
176
     1
290
     0
176
     1
 90
       50
176
     1
 40
0.0
176
     1
 40
1.0
176
     1
 90
        0
176
     1
 62
    18
420
        0
176
     1
 90
       50
176
     1
 90
        3
176
     1
 62
     5
420
      255
176
     1
290
     0
176
     1
 90
       50
176
     1
 90
       50
176
     1
 90
       50
176
     1
290
     0
176
     1
 90
       50
176
     1
 62
   256
176
     0
 40
1.0
176
     0
 90
        2
176
     1
  1
strokes_ogs.tif
176
     1
290
     0
176
     1
 40
1.0
176
     1
 40
1.0
176
     1
  0
VISUALSTYLE
  5
3F
102
{ACAD_REACTORS
330
2A
102
}
330
2A
100
AcDbVisualStyle
  2

 70
    24
177
     3
291
     0
 70
    58
 90
        1
176
     1
 90
        2
176
     1
 90
        2
176
     1
 90
        0
176
     1
 40
0.6
176
     1
 40
30.0
176
     1
 62
     7
420
 16777215
176
     1
 90
        2
176
     1
 90
        2
176
     1
 62
     7
176
     1
 62
     7
176
     1
 90
        1
176
     1
 90
        1
176
     1
 40
40.0
176
     1
 90
       11
176
     1
 62
     7
176
     1
 40
1.0
176
     1
 90
        1
176
     1
 90
        6
176
     1
 90
        2
176
     1
 62
     7
176
     1
 90
        6
176
     1
 90
        0
176
     1
 90
        0
176
     1
290
     0
176
     1
 90
        1
176
     1
 40
0.0
176
     1
 90
        0
176
     1
290
     0
176
     1
290
     1
176
     1
290
     1
176
     1
290
     0
176
     1
290
     0
176
     1
290
     0
176
     1
290
     0
176
     1
290
     0
176
     1
290
     0
176
     1
 90
       50
176
     1
 40
0.0
176
     1
 40
1.0
176
     1
 90
        0
176
     1
 62
    18
420
        0
176
     1
 90
       50
176
     1
 90
        3
176
     1
 62
     5
420
      255
176
     1
290
     0
176
     1
 90
       50
176
     1
 90
       50
176
     1
 90
       50
176
     1
290
     0
176
     1
 90
       50
176
     1
 62
   256
176
     0
 40
1.0
176
     0
 90
        2
176
     1
  1
strokes_ogs.tif
176
     1
290
     0
176
     1
 40
1.0
176
     1
 40
1.0
176
     1
  0
VISUALSTYLE
  5
37
102
{ACAD_REACTORS
330
2A
102
}
330
2A
100
AcDbVisualStyle
  2

 70
    13
177
     3
291
     1
 70
    58
 90
        2
176
     1
 90
        2
176
     1
 90
        0
176
     1
 90
        0
176
     1
 40
0.6
176
     1
 40
30.0
176
     1
 62
     7
420
 16777215
176
     1
 90
        1
176
     1
 90
        4
176
     1
 62
     7
176
     1
 62
   257
176
     1
 90
        1
176
     1
 90
        1
176
     1
 40
1.0
176
     1
 90
       12
176
     1
 62
     7
176
     1
 40
1.0
176
     1
 90
        1
176
     1
 90
        6
176
     1
 90
        2
176
     1
 62
     7
176
     1
 90
        5
176
     1
 90
        0
176
     1
 90
        0
176
     1
290
     0
176
     1
 90
        1
176
     1
 40
0.0
176
     1
 90
        0
176
     1
290
     0
176
     1
290
     1
176
     1
290
     1
176
     1
290
     0
176
     1
290
     0
176
     1
290
     0
176
     1
290
     0
176
     1
290
     0
176
     1
290
     0
176
     1
 90
       50
176
     1
 40
0.0
176
     1
 40
1.0
176
     1
 90
        0
176
     1
 62
    18
420
        0
176
     1
 90
       50
176
     1
 90
        3
176
     1
 62
     5
420
      255
176
     1
290
     0
176
     1
 90
       50
176
     1
 90
       50
176
     1
 90
       50
176
     1
290
     0
176
     1
 90
       50
176
     1
 62
   256
176
     0
 40
1.0
176
     0
 90
        2
176
     1
  1
strokes_ogs.tif
176
     1
290
     0
176
     1
 40
1.0
176
     1
 40
1.0
176
     1
  0
VISUALSTYLE
  5
30
102
{ACAD_REACTORS
330
2A
102
}
330
2A
100
AcDbVisualStyle
  2

 70
     5
177
     3
291
     0
 70
    58
 90
        0
176
     1
 90
        2
176
     1
 90
        0
176
     1
 90
        0
176
     1
 40
0.6
176
     1
 40
30.0
176
     1
 62
     7
420
 16777215
176
     1
 90
        1
176
     1
 90
        4
176
     1
 62
     7
176
     1
 62
   257
176
     1
 90
        1
176
     1
 90
        1
176
     1
 40
1.0
176
     1
 90
        0
176
     1
 62
   257
176
     1
 40
1.0
176
     1
 90
        1
176
     1
 90
        6
176
     1
 90
        2
176
     1
 62
     7
176
     1
 90
        3
176
     1
 90
        0
176
     1
 90
        0
176
     1
290
     0
176
     1
 90
        1
176
     1
 40
0.0
176
     1
 90
        0
176
     1
290
     0
176
     1
290
     1
176
     1
290
     1
176
     1
290
     0
176
     1
290
     0
176
     1
290
     0
176
     1
290
     0
176
     1
290
     0
176
     1
290
     0
176
     1
 90
       50
176
     1
 40
0.0
176
     1
 40
1.0
176
     1
 90
        0
176
     1
 62
    18
420
        0
176
     1
 90
       50
176
     1
 90
        3
176
     1
 62
     5
420
      255
176
     1
290
     0
176
     1
 90
       50
176
     1
 90
       50
176
     1
 90
       50
176
     1
290
     0
176
     1
 90
       50
176
     1
 62
   256
176
     0
 40
1.0
176
     0
 90
        2
176
     1
  1
strokes_ogs.tif
176
     1
290
     0
176
     1
 40
1.0
176
     1
 40
1.0
176
     1
  0
VISUALSTYLE
  5
40
102
{ACAD_REACTORS
330
2A
102
}
330
2A
100
AcDbVisualStyle
  2

 70
    25
177
     3
291
     0
 70
    58
 90
        2
176
     1
 90
        2
176
     1
 90
        1
176
     1
 90
        1
176
     1
 40
0.5
176
     1
 40
30.0
176
     1
 62
     7
420
 16777215
176
     1
 90
        1
176
     1
 90
        0
176
     1
 62
     7
176
     1
 62
   257
176
     1
 90
        1
176
     1
 90
        1
176
     1
 40
1.0
176
     1
 90
        8
176
     1
 62
     7
176
     1
 40
1.0
176
     1
 90
        1
176
     1
 90
        6
176
     1
 90
        2
176
     1
 62
     7
176
     1
 90
        3
176
     1
 90
        0
176
     1
 90
        0
176
     1
290
     0
176
     1
 90
       13
176
     1
 40
0.0
176
     1
 90
        0
176
     1
290
     0
176
     1
290
     1
176
     1
290
     1
176
     1
290
     0
176
     1
290
     0
176
     1
290
     0
176
     1
290
     0
176
     1
290
     0
176
     1
290
     0
176
     1
 90
       50
176
     1
 40
0.0
176
     1
 40
1.0
176
     1
 90
        0
176
     1
 62
    18
420
        0
176
     1
 90
       50
176
     1
 90
        3
176
     1
 62
     5
420
      255
176
     1
290
     0
176
     1
 90
       50
176
     1
 90
       50
176
     1
 90
       50
176
     1
290
     0
176
     1
 90
       50
176
     1
 62
   256
176
     0
 40
1.0
176
     0
 90
        2
176
     1
  1
strokes_ogs.tif
176
     1
290
     0
176
     1
 40
1.0
176
     1
 40
1.0
176
     1
  0
DICTIONARYVAR
  5
2A1
102
{ACAD_REACTORS
330
2A0
102
}
330
2A0
100
DictionaryVariables
280
     0
  1
1:1
  0
DICTIONARYVAR
  5
2DA
102
{ACAD_REACTORS
330
2A0
102
}
330
2A0
100
DictionaryVariables
280
     0
  1
STANDARD
  0
DICTIONARYVAR
  5
2D9
102
{ACAD_REACTORS
330
2A0
102
}
330
2A0
100
DictionaryVariables
280
     0
  1
STANDARD
  0
DICTIONARYVAR
  5
3D4
102
{ACAD_REACTORS
330
2A0
102
}
330
2A0
100
DictionaryVariables
280
     0
  1
Metric50
  0
DICTIONARYVAR
  5
3D5
102
{ACAD_REACTORS
330
2A0
102
}
330
2A0
100
DictionaryVariables
280
     0
  1
Metric50
  0
DICTIONARYVAR
  5
3D6
102
{ACAD_REACTORS
330
2A0
102
}
330
2A0
100
DictionaryVariables
280
     0
  1
1
  0
DICTIONARYVAR
  5
3D7
102
{ACAD_REACTORS
330
2A0
102
}
330
2A0
100
DictionaryVariables
280
     0
  1
15
  0
DICTIONARY
  5
2D3
330
5A
100
AcDbDictionary
280
     1
281
     1
  3
ACAD_ROUNDTRIP_2008_TABLESTYLE_CELLSTYLEMAP
360
411
  0
CELLSTYLEMAP
  5
411
102
{ACAD_REACTORS
330
2D3
102
}
330
2D3
100
AcDbCellStyleMap
 90
        3
300
CELLSTYLE
  1
TABLEFORMAT_BEGIN
 90
        5
170
     1
 91
        0
 92
    32768
 62
   257
 93
        1
300
CONTENTFORMAT
  1
CONTENTFORMAT_BEGIN
 90
        0
 91
        0
 92
        4
 93
        0
300

 40
0.0
140
1.0
 94
        5
 62
     0
340
11
144
0.25
309
CONTENTFORMAT_END
171
     1
301
MARGIN
  1
CELLMARGIN_BEGIN
 40
0.06
 40
0.06
 40
0.06
 40
0.06
 40
0.18
 40
0.18
309
CELLMARGIN_END
 94
        6
 95
        1
302
GRIDFORMAT
  1
GRIDFORMAT_BEGIN
 90
        0
 91
        1
 62
     0
 92
       -2
340
14
 93
        0
 40
0.045
309
GRIDFORMAT_END
 95
        2
302
GRIDFORMAT
  1
GRIDFORMAT_BEGIN
 90
        0
 91
        1
 62
     0
 92
       -2
340
14
 93
        0
 40
0.045
309
GRIDFORMAT_END
 95
        4
302
GRIDFORMAT
  1
GRIDFORMAT_BEGIN
 90
        0
 91
        1
 62
     0
 92
       -2
340
14
 93
        0
 40
0.045
309
GRIDFORMAT_END
 95
        8
302
GRIDFORMAT
  1
GRIDFORMAT_BEGIN
 90
        0
 91
        1
 62
     0
 92
       -2
340
14
 93
        0
 40
0.045
309
GRIDFORMAT_END
 95
       16
302
GRIDFORMAT
  1
GRIDFORMAT_BEGIN
 90
        0
 91
        1
 62
     0
 92
       -2
340
14
 93
        0
 40
0.045
309
GRIDFORMAT_END
 95
       32
302
GRIDFORMAT
  1
GRIDFORMAT_BEGIN
 90
        0
 91
        1
 62
     0
 92
       -2
340
14
 93
        0
 40
0.045
309
GRIDFORMAT_END
309
TABLEFORMAT_END
  1
CELLSTYLE_BEGIN
 90
        1
 91
        1
300
_TITLE
309
CELLSTYLE_END
300
CELLSTYLE
  1
TABLEFORMAT_BEGIN
 90
        5
170
     1
 91
        0
 92
        0
 62
   257
 93
        1
300
CONTENTFORMAT
  1
CONTENTFORMAT_BEGIN
 90
        0
 91
        0
 92
        4
 93
        0
300

 40
0.0
140
1.0
 94
        5
 62
     0
340
11
144
0.18
309
CONTENTFORMAT_END
171
     1
301
MARGIN
  1
CELLMARGIN_BEGIN
 40
0.06
 40
0.06
 40
0.06
 40
0.06
 40
0.18
 40
0.18
309
CELLMARGIN_END
 94
        6
 95
        1
302
GRIDFORMAT
  1
GRIDFORMAT_BEGIN
 90
        0
 91
        1
 62
     0
 92
       -2
340
14
 93
        0
 40
0.045
309
GRIDFORMAT_END
 95
        2
302
GRIDFORMAT
  1
GRIDFORMAT_BEGIN
 90
        0
 91
        1
 62
     0
 92
       -2
340
14
 93
        0
 40
0.045
309
GRIDFORMAT_END
 95
        4
302
GRIDFORMAT
  1
GRIDFORMAT_BEGIN
 90
        0
 91
        1
 62
     0
 92
       -2
340
14
 93
        0
 40
0.045
309
GRIDFORMAT_END
 95
        8
302
GRIDFORMAT
  1
GRIDFORMAT_BEGIN
 90
        0
 91
        1
 62
     0
 92
       -2
340
14
 93
        0
 40
0.045
309
GRIDFORMAT_END
 95
       16
302
GRIDFORMAT
  1
GRIDFORMAT_BEGIN
 90
        0
 91
        1
 62
     0
 92
       -2
340
14
 93
        0
 40
0.045
309
GRIDFORMAT_END
 95
       32
302
GRIDFORMAT
  1
GRIDFORMAT_BEGIN
 90
        0
 91
        1
 62
     0
 92
       -2
340
14
 93
        0
 40
0.045
309
GRIDFORMAT_END
309
TABLEFORMAT_END
  1
CELLSTYLE_BEGIN
 90
        2
 91
        1
300
_HEADER
309
CELLSTYLE_END
300
CELLSTYLE
  1
TABLEFORMAT_BEGIN
 90
        5
170
     1
 91
        0
 92
        0
 62
   257
 93
        1
300
CONTENTFORMAT
  1
CONTENTFORMAT_BEGIN
 90
        0
 91
        0
 92
        4
 93
        0
300

 40
0.0
140
1.0
 94
        2
 62
     0
340
11
144
0.18
309
CONTENTFORMAT_END
171
     1
301
MARGIN
  1
CELLMARGIN_BEGIN
 40
0.06
 40
0.06
 40
0.06
 40
0.06
 40
0.18
 40
0.18
309
CELLMARGIN_END
 94
        6
 95
        1
302
GRIDFORMAT
  1
GRIDFORMAT_BEGIN
 90
        0
 91
        1
 62
     0
 92
       -2
340
14
 93
        0
 40
0.045
309
GRIDFORMAT_END
 95
        2
302
GRIDFORMAT
  1
GRIDFORMAT_BEGIN
 90
        0
 91
        1
 62
     0
 92
       -2
340
14
 93
        0
 40
0.045
309
GRIDFORMAT_END
 95
        4
302
GRIDFORMAT
  1
GRIDFORMAT_BEGIN
 90
        0
 91
        1
 62
     0
 92
       -2
340
14
 93
        0
 40
0.045
309
GRIDFORMAT_END
 95
        8
302
GRIDFORMAT
  1
GRIDFORMAT_BEGIN
 90
        0
 91
        1
 62
     0
 92
       -2
340
14
 93
        0
 40
0.045
309
GRIDFORMAT_END
 95
       16
302
GRIDFORMAT
  1
GRIDFORMAT_BEGIN
 90
        0
 91
        1
 62
     0
 92
       -2
340
14
 93
        0
 40
0.045
309
GRIDFORMAT_END
 95
       32
302
GRIDFORMAT
  1
GRIDFORMAT_BEGIN
 90
        0
 91
        1
 62
     0
 92
       -2
340
14
 93
        0
 40
0.045
309
GRIDFORMAT_END
309
TABLEFORMAT_END
  1
CELLSTYLE_BEGIN
 90
        3
 91
        2
300
_DATA
309
CELLSTYLE_END
  0
ENDSEC
  0
EOF
